<svg width="400" height="400" viewBox="0 0 400 400" fill="none" xmlns="http://www.w3.org/2000/svg">
<g clip-path="url(#clip0_7_158)">
<g clip-path="url(#clip1_7_158)">
<path d="M388.271 135.801C387.906 135.844 387.587 135.796 387.554 135.693C387.52 135.591 386.709 135.892 385.738 136.34C384.777 136.823 383.943 137.17 383.898 137.146C383.852 137.123 384.094 136.875 384.38 136.592C384.736 136.287 385.036 135.754 385.119 135.31L385.273 134.56L384.436 135.248C383.772 135.767 383.553 136.085 383.468 136.699C383.372 137.393 383.166 137.574 381.29 138.619C378.556 140.113 378.396 140.146 379.087 139.24C379.639 138.492 379.911 137.116 379.548 136.931C379.458 136.885 379.067 137.258 378.722 137.768C378.227 138.459 378.076 138.868 378.139 139.472C378.236 140.236 378.19 140.27 376.062 141.586C374.86 142.317 373.831 142.879 373.785 142.856C373.74 142.833 374.018 142.288 374.444 141.676C374.997 140.815 375.183 140.338 375.166 139.586C375.165 138.128 374.847 138.023 374.007 139.224C373.315 140.244 372.998 141.597 373.406 141.805C373.52 141.863 373.597 142.16 373.618 142.456C373.626 142.889 373.213 143.307 371.587 144.423C370.476 145.2 369.503 145.819 369.435 145.784C369.367 145.75 369.621 145.25 370.013 144.707C370.393 144.129 370.798 143.334 370.926 142.914C371.171 142.096 370.901 140.271 370.558 140.383C370.433 140.404 369.949 141.073 369.476 141.832C368.612 143.193 368.589 143.238 368.92 144.607C369.206 145.954 369.194 146.033 368.552 146.564C366.42 148.336 365.561 148.956 365.425 148.886C365.311 148.828 365.555 148.181 365.937 147.432C366.735 145.866 366.904 144.638 366.468 143.472L366.144 142.65L365.488 143.602C364.406 145.108 364.192 146.257 364.67 147.844L365.092 149.26L362.889 151.282C361.662 152.4 359.791 154.277 358.711 155.499C357.62 156.686 356.678 157.693 356.598 157.738C356.427 157.794 356.539 156.564 356.823 155.222C357.235 153.403 357.006 152 356.083 150.615L355.227 149.321L354.935 150.287C354.351 152.219 354.072 154.45 354.328 155.181C354.496 155.581 354.935 156.29 355.319 156.771C356.47 158.101 356.459 158.067 355.089 159.97C354.399 160.933 353.466 162.259 353.016 162.973C352.556 163.653 352.165 164.083 352.098 163.934C352.065 163.775 352.141 162.784 352.263 161.703C352.556 159.051 352.283 157.568 351.2 156.102C350.704 155.449 350.185 154.842 350.026 154.761C349.459 154.472 348.848 159.934 349.294 161.191C349.427 161.602 350.093 162.484 350.759 163.195L351.968 164.469L350.601 167.488C349.86 169.168 349.058 171.19 348.825 171.985C348.579 172.803 348.324 173.473 348.255 173.496C348.049 173.562 347.757 171.612 347.756 170.211C347.771 168.218 346.88 165.535 345.762 164.365C344.677 163.183 343.318 162.091 343.203 162.318C343.157 162.408 343.124 163.65 343.159 165.097C343.207 169.266 344.113 171.471 346.337 172.604C346.677 172.778 347.243 173.237 347.559 173.627C348.079 174.235 348.111 174.508 347.828 175.679C347.499 176.998 347.209 179.194 347.056 181.346L347.003 182.405L346.541 181.741C346.293 181.386 345.597 180.002 345.015 178.676C344.467 177.34 343.568 175.681 343.038 174.982C342.204 173.871 341.876 173.618 339.754 172.565C338.483 171.918 337.268 171.442 337.062 171.509C336.617 171.653 338.401 176.622 339.605 178.578C340.674 180.295 341.66 180.997 343.718 181.446C344.594 181.635 345.696 181.996 346.15 182.227C346.921 182.621 346.989 182.769 347.013 184.011C347.035 185.708 347.504 189.949 347.952 192.435C348.149 193.451 348.245 194.328 348.176 194.351C347.971 194.418 346.847 192.359 346.222 190.725C345.395 188.646 344.44 186.93 343.334 185.509C342.59 184.558 342.058 184.144 340.469 183.335C338.2 182.179 336.303 181.469 336.164 181.742C336.118 181.832 336.709 183.534 337.446 185.51C339.691 191.256 341.216 192.977 344.674 193.595C346.391 193.927 348.298 194.841 348.464 195.469C348.676 196.12 349.632 203.725 349.915 206.87C350.075 208.352 350.222 209.971 350.252 210.472C350.348 211.35 350.337 211.373 350.102 210.824C349.944 210.516 349.568 209.066 349.238 207.583C348.157 202.859 346.982 200.117 345.264 198.327C344.225 197.225 339.057 193.792 338.646 193.925C338.269 194.048 339.627 201.2 340.596 204.123C341.097 205.665 341.87 207.402 342.355 208.02C343.155 209.086 343.427 209.282 346.763 210.981C348.828 212.033 350.37 212.934 350.437 213.139C350.781 214.315 350.95 231.151 350.584 231.251C350.345 231.329 349.509 227.359 349.232 224.816C348.485 218.261 346.826 214.672 343.169 211.751C341.131 210.141 338.649 208.562 338.703 208.904C338.713 209.052 338.859 210.841 339.015 212.893C339.421 217.931 339.746 220.04 340.559 222.484C341.538 225.555 342.25 226.347 345.72 228.344C348.646 230.006 349.982 231.03 350.397 231.899C350.667 232.436 350.113 239.3 349.426 244.352C348.87 248.471 348.014 253.294 347.842 253.35C347.5 253.461 347.066 249.095 347.089 246.02C347.159 236.852 345.774 233.173 340.459 228.235C337.812 225.8 337.551 225.582 337.436 225.809C337.389 225.9 337.248 227.972 337.128 230.397C336.76 236.841 337.081 241.035 338.072 243.97C338.763 245.98 339.938 247.321 342.872 249.417C345.829 251.524 347.738 253.611 347.639 254.59C347.431 256.57 345.135 264.948 343.538 269.651C342.385 273.037 340.27 278.533 340.099 278.589C339.711 278.734 340.245 272.918 340.858 270.143C342.65 262.138 342.37 257.079 339.932 252.606C338.943 250.845 334.964 245.302 334.702 245.368C334.622 245.413 334.036 247.516 333.368 250.062C330.644 260.794 330.501 266.01 332.831 269.684C333.316 270.416 334.636 271.975 335.789 273.135C337.18 274.557 338.206 275.852 338.903 277.122L339.925 278.986L339.101 280.996C336.189 287.945 330.615 297.596 325.055 305.253C323.57 307.27 323.467 307.36 323.759 306.451C324.25 304.758 326.11 301.275 328.485 297.568C330.387 294.621 330.964 293.543 331.928 291.147C333.995 285.912 334.286 283.602 333.457 278.778C333.064 276.52 331.356 270.447 331.084 270.308C330.88 270.204 325.582 277.795 323.495 281.162C320.924 285.312 319.042 290.127 319.035 292.553C319.021 294.432 319.674 296.852 320.928 299.721C322.272 302.749 322.738 304.359 322.926 306.684L323.041 307.972L321.327 310.157C317.417 315.139 312.26 320.772 307.292 325.53L305.169 327.564L306.361 325.056C307.253 323.195 308.071 321.868 309.693 319.751C312.823 315.628 313.111 315.175 314.869 311.669C317.54 306.427 318.027 303.845 317.395 298.521C317 295.089 315.821 289.772 315.513 289.872C315.342 289.928 309.765 296.777 307.89 299.223C306.026 301.646 302.423 308.214 301.908 310.067C301.158 312.829 301.337 314.778 302.661 318.797C304.075 323.148 304.428 324.643 304.458 326.716L304.492 328.22L301.981 330.456C297.772 334.171 293.464 337.578 287.92 341.614C283.739 344.658 282.652 345.333 282.861 344.811C283.268 343.732 286.133 339.903 287.659 338.423C291.48 334.739 295.219 329.926 297.068 326.352C299.103 322.358 299.586 317.259 298.666 309.416C298.496 307.899 298.274 307.1 298.102 307.27C297.941 307.417 297.046 308.276 296.06 309.202C288.016 316.909 285.052 320.258 282.685 324.455C281.519 326.519 280.94 327.767 280.763 328.62C280.314 330.736 280.498 333.516 281.302 337.156C282.04 340.419 282.244 343.61 281.832 345.315C281.667 346.089 281.255 346.393 275.315 350.084C269.41 353.764 258.738 359.674 258.626 359.331C258.548 359.092 261.066 356.058 262.397 354.793C263.108 354.126 264.921 352.42 266.446 350.996C271.012 346.691 274.741 341.617 275.838 338.231C276.887 335.049 277.367 328.834 276.975 323.489L276.863 321.745L276.278 322.276C275.968 322.547 274.065 324.15 272.071 325.821C264.815 331.871 260.911 335.942 258.523 339.956C256.538 343.289 256.154 345.952 256.947 351.015C257.631 355.394 257.66 356.066 257.394 358.16L257.161 360.243L253.697 361.937C247.844 364.785 239.833 368.278 233.31 370.814L232.487 371.138L233.086 370.3C234.387 368.476 237.072 365.843 239.971 363.518C245.117 359.366 248.321 355.939 250.743 351.97C252.162 349.635 252.757 347.737 253.347 343.607C253.781 340.455 254.06 333.68 253.753 333.552C253.549 333.448 246.103 339.087 242.939 341.705C240.222 343.952 236.745 347.411 235.399 349.211C234.789 350.015 233.866 351.603 233.309 352.863C232.069 355.633 231.897 357.374 232.428 362.39C232.714 365.308 232.714 366.709 232.38 368.711L231.951 371.294L230.522 371.909C228.271 372.906 208.049 379.439 202.056 381.102C191.772 383.951 190.802 384.171 188.398 384.233C185.106 384.299 183.908 384.632 183.399 385.63C182.532 387.332 183.371 392.248 184.741 393.431C185.453 394.052 186.925 393.801 190.557 392.45C192.35 391.792 194.908 391.037 196.231 390.796C203.291 389.506 221.8 383.473 233.729 378.574L236.597 377.377L237.424 377.999C239.588 379.53 241.283 381.308 243.436 384.263C246.356 388.238 247.578 389.375 250.529 390.707C253.299 391.947 256.222 392.436 261.495 392.522C264.958 392.571 267.396 392.441 275.226 391.829L278.44 391.58L277.593 390.548C276.194 388.806 271.955 384.617 270.132 383.145C267.675 381.178 264.634 379.686 261.791 379.038C257.664 378.107 252.779 377.819 247.082 378.174C244.78 378.316 239.68 377.947 237.735 377.5C236.814 377.288 236.265 377.58 244.003 374.119C247.272 372.64 251.41 370.69 253.216 369.781C255.275 368.714 256.668 368.167 256.918 368.294C258.382 369.011 260.677 371.295 262.955 374.229C266.666 379.064 268.512 380.433 272.378 381.317C277.347 382.448 282.006 382.392 294.682 381.076C296.461 380.896 297.943 380.679 298 380.623C298.105 380.418 295.924 378.078 293.549 375.839C287.736 370.419 283.979 368.648 276.922 368.024C273.78 367.739 272.231 367.75 267.957 368.059C265.997 368.203 263.855 368.313 263.171 368.307C262.055 368.31 257.787 367.879 257.515 367.74C257.447 367.706 258.179 367.278 259.139 366.796C260.111 366.291 263.405 364.482 266.437 362.739L271.985 359.592L274.639 361.116C276.59 362.224 277.734 363.064 278.91 364.178C279.815 365.039 281.32 366.292 282.26 366.972C286.067 369.654 290.721 370.282 299.362 369.254C302.338 368.912 313.288 366.945 313.232 366.774C313.132 366.465 309.359 363.828 306.774 362.283C302.692 359.803 299.943 358.745 296.563 358.367C292.148 357.832 287.921 358.05 281.386 359.094C280.017 359.312 277.373 359.508 275.483 359.516C272.601 359.506 272.146 359.445 272.672 359.142C274.445 358.13 280.97 353.851 284.257 351.553L288.001 348.916L290.553 350.359C292.572 351.502 293.523 352.215 295.118 353.742C296.701 355.292 297.664 355.983 299.682 357.126C302.007 358.453 302.416 358.605 304.362 358.881C308.742 359.541 314.327 359.071 323.989 357.219C327.445 356.551 329.248 356.097 329.124 355.891C329.012 355.72 327.891 354.834 326.622 353.902C323.688 351.75 317.029 348.271 315.107 347.892C310.898 347.062 304.941 347.142 299.386 348.114C295.577 348.746 293.366 348.934 290.439 348.843L288.276 348.77L291.758 346.142C293.672 344.688 296.307 342.6 297.614 341.494L299.998 339.507L301.249 339.802C302.864 340.167 304.294 340.839 308.603 343.32C311.881 345.19 312.301 345.376 313.973 345.685C318.352 346.458 324.594 345.036 336.405 340.536L339.353 339.408L336.788 338.101C332.613 335.973 328.114 334.424 325.303 334.164C323.8 334.027 320.188 334.273 317.826 334.699C316.8 334.862 313.501 335.783 310.51 336.717C305.178 338.374 300.078 339.463 300.881 338.785C303.197 336.764 307.923 332.369 310.322 330.018L313.305 327.079L314.807 327.33C315.854 327.52 317.614 328.217 320.701 329.618C325.627 331.9 327.128 332.264 330.16 331.98C332.121 331.778 337.692 330.1 340.869 328.746C344.308 327.269 352.025 323.512 351.97 323.341C351.88 323.123 347.314 321.426 344.985 320.725C342.621 320.035 339.185 319.428 337.602 319.45C334.173 319.447 328.752 320.886 323.369 323.26C319.838 324.805 314.128 326.755 314.005 326.435C313.994 326.344 314.65 325.563 315.511 324.658C317.36 322.656 319.945 319.658 322.625 316.306C323.763 314.914 324.831 313.772 325.013 313.75C326.13 313.633 329.701 314.481 332.199 315.468C335.617 316.838 336.811 317.132 339.168 317.218C341.468 317.304 346.241 315.791 350.483 313.636C353.467 312.098 362.324 306.835 362.245 306.652C362.167 306.469 356.869 305.085 354.97 304.717C352.286 304.207 349.132 304.001 347.57 304.206C343.796 304.712 338.381 306.813 333.062 309.848C330.03 311.59 325.026 313.557 325.373 312.876C325.489 312.649 325.938 311.992 326.409 311.403C327.594 309.863 331.569 303.97 332.953 301.703C333.622 300.614 334.312 299.651 334.529 299.562C334.712 299.484 334.804 299.359 334.691 299.301C334.577 299.243 335.41 297.552 336.554 295.477C339.776 289.658 342.382 283.983 344.765 277.565C346.66 272.556 346.395 272.964 348.017 272.305C348.84 271.981 350.62 271.573 351.977 271.378C356.629 270.719 358.47 269.742 361.229 266.516C363.136 264.287 364.738 261.816 367.405 257.086L369.576 253.219L368.333 253.471C366.256 253.9 361.231 255.684 359.721 256.516C357.17 257.931 354.207 261.166 351.544 265.44C349.283 269.091 346.855 272.341 346.929 271.636C346.954 271.363 347.446 269.555 348.019 267.646C348.569 265.725 349.342 262.918 349.706 261.417C350.365 258.666 350.376 258.643 351.201 258.034C351.67 257.73 353.579 256.902 355.441 256.221C360.386 254.425 361.797 253.171 364.306 248.247C365.624 245.66 368.947 237.063 368.825 236.572C368.748 236.275 365.731 237.539 363.489 238.798C358.742 241.439 356.867 243.942 352.418 253.738C350.449 258.108 350.527 258.348 351.65 251.488C351.96 249.588 352.334 246.892 352.504 245.492L352.797 242.897L354.114 241.882C354.836 241.307 356.381 240.407 357.546 239.915C361.821 238.034 363.441 236.201 365.245 231.089C366.223 228.271 368.347 220.121 368.097 219.993C367.87 219.878 362.742 223.21 361.469 224.306C358.798 226.632 356.995 230.001 355.253 235.945C354.411 238.889 353.12 242.376 352.938 242.283C352.893 242.26 352.921 241.531 352.996 240.655C353.082 239.812 353.253 236.784 353.366 233.926L353.587 228.779L354.621 227.705C355.172 227.128 356.626 226.069 357.851 225.349C359.052 224.618 360.426 223.66 360.908 223.219C361.987 222.168 363.316 219.559 363.996 217.103C364.546 215.183 365.92 206.65 365.776 206.148C365.665 205.805 361.207 209.28 359.795 210.761C358.945 211.7 358.472 212.46 357.464 214.719C356.259 217.42 356.002 218.318 355.041 223.346C354.815 224.574 354.405 226.166 354.148 226.893L353.649 228.21L353.597 225.954C353.55 224.701 353.415 221.488 353.264 218.81C352.943 213.158 352.861 213.431 356.356 210.724C358.258 209.235 358.396 209.076 359.367 207.113C360.142 205.536 360.446 204.604 360.616 203.147C360.929 200.906 361.212 193.618 361.008 193.514C360.759 193.387 358.027 196.054 356.694 197.719C355.578 199.122 355.312 199.644 354.811 201.19C354.18 203.212 353.632 206.42 353.641 208.197C353.62 209.473 353.161 212.955 353.002 212.874C352.957 212.851 352.752 211.289 352.561 209.419C352.359 207.572 351.906 204.254 351.592 202.065C351.244 199.887 351.03 198.006 351.1 197.87C351.308 197.461 352.521 196.707 354.453 195.777C356.751 194.632 357.601 193.75 358.61 191.377C359.433 189.481 361.131 183.287 360.882 183.159C360.7 183.067 357.438 185.206 356.372 186.121C354.973 187.295 353.76 189.564 352.732 192.927C352.218 194.552 351.613 196.302 351.382 196.756L350.954 197.595L350.395 194.652C350.089 193.01 349.661 190.82 349.453 189.77C349.244 188.721 349.005 187.227 348.943 186.452L348.817 185.016L350.084 184.604C350.804 184.37 352.128 184.016 353.029 183.817C354.284 183.542 354.97 183.206 355.796 182.426C356.874 181.432 359.247 177.953 360.484 175.525L361.109 174.299L358.871 174.989C355.149 176.179 353.864 177.297 351.028 181.797C350.175 183.135 349.323 184.359 349.117 184.482C348.087 185.158 349.038 175.438 350.303 172.281C350.477 171.827 350.629 171.304 350.62 171.099C350.568 170.415 353.599 164.185 355.097 161.918C357.056 158.972 359.069 156.424 359.49 156.382C359.673 156.36 360.365 156.684 361.045 157.145C362.099 157.825 362.429 157.907 363.546 157.848C364.252 157.807 365.678 157.477 366.718 157.12L368.625 156.462L367.069 155.87C365.036 155.091 364.228 155.051 361.922 155.648C360.222 156.068 359.504 156.131 359.654 155.836C359.677 155.791 360.55 154.863 361.583 153.789C363.891 151.335 367.481 148.162 367.959 148.12C368.164 148.11 368.823 148.331 369.413 148.632C370.457 149.164 370.662 149.154 372.603 148.542L374.704 147.897L373.842 147.458C372.775 146.915 371.659 146.918 369.764 147.439C368.965 147.66 368.338 147.769 368.396 147.656C368.453 147.542 369.382 146.786 370.459 145.963L372.407 144.44L373.791 145.145C375.084 145.805 375.278 145.817 377.023 145.478C378.016 145.269 378.895 145.002 378.953 144.888C379.114 144.571 377.582 143.876 376.557 143.811C376.068 143.762 375.031 143.891 374.277 144.078C373.501 144.255 372.84 144.375 372.795 144.352C372.749 144.329 373.7 143.641 374.902 142.853L377.077 141.389L378.075 141.898C378.915 142.325 379.302 142.351 380.341 142.051L381.574 141.708L380.768 141.269C380.224 140.991 379.541 140.929 378.606 141.081L377.203 141.31L378.13 140.782C378.622 140.489 379.64 139.893 380.361 139.432C381.642 138.656 381.699 138.656 382.618 139.153C383.287 139.522 383.776 139.629 384.188 139.495C384.736 139.317 384.747 139.294 384.021 138.924C383.613 138.716 383.033 138.564 382.725 138.55C382.429 138.57 382.202 138.512 382.236 138.444C382.271 138.376 383.381 137.769 384.684 137.118C386.777 136.041 387.142 135.941 387.755 136.253C388.14 136.45 388.88 136.569 389.37 136.505L390.282 136.398L389.601 136.051C389.216 135.854 388.613 135.747 388.271 135.801Z" fill="#44745B"/>
<path d="M360.071 147.388C359.188 149.682 359.137 150.456 359.901 151.817C360.249 152.48 360.61 153.007 360.701 152.996C360.849 152.929 361.654 150.452 361.832 149.542C361.951 148.917 361.43 146.908 361.002 146.29C360.687 145.843 360.641 145.877 360.071 147.388Z" fill="#44745B"/>
<path d="M368.755 151.269C367.811 151.16 366.591 151.253 364.686 151.626L363.899 151.768L365.089 152.574C366.449 153.496 367.621 153.607 370.052 152.988L371.547 152.635L370.913 152.14C370.098 151.496 369.927 151.438 368.755 151.269Z" fill="#44745B"/>
<path d="M362.515 160.038C361.503 159.894 360.009 160.133 357.577 160.809L355.648 161.341L357.282 162.174C358.167 162.625 359.281 163.021 359.782 163.047C360.795 163.135 363.75 162.382 364.951 161.765L365.74 161.338L364.526 160.748C363.868 160.413 362.97 160.098 362.515 160.038Z" fill="#44745B"/>
<path d="M361.885 166.605C359.107 166.391 357.052 167.059 354.177 169.167C352.963 170.035 351.715 170.857 351.418 170.991C350.664 171.293 350.855 171.59 351.823 171.598C352.256 171.59 353.03 171.698 353.507 171.827C354.939 172.214 356.398 172.1 357.633 171.528C358.787 171.001 364.067 167.146 364.001 166.884C363.956 166.803 363.012 166.694 361.885 166.605Z" fill="#44745B"/>
<path d="M367.446 271.199C359.072 271.477 355.403 273.181 348.598 279.918C346.91 281.602 344.651 283.624 343.609 284.379C342.555 285.157 341.741 285.857 341.752 285.948C341.797 286.028 342.572 285.966 343.484 285.802C344.431 285.627 346.527 285.609 348.189 285.712C352.674 286.054 354.362 285.771 356.937 284.252C358.687 283.229 361.644 280.848 363.698 278.78C365.225 277.242 370.358 271.711 370.497 271.439C370.647 271.144 370.215 271.095 367.446 271.199Z" fill="#44745B"/>
<path d="M364.191 288.864C358.661 288.104 356.257 288.223 352.797 289.347C349.497 290.438 346.501 292.055 342.287 294.996C340.729 296.089 338.418 297.484 337.16 298.101C335.914 298.695 334.919 299.246 334.941 299.314C334.952 299.406 335.908 299.493 337.07 299.513C338.22 299.556 340.074 299.843 341.256 300.217C347.143 301.958 349.959 301.593 355.519 298.48C357.566 297.322 367.861 290.076 368.104 289.6C368.208 289.395 367.946 289.348 364.191 288.864Z" fill="#44745B"/>
</g>
<g clip-path="url(#clip2_7_158)">
<path d="M17.9645 135.801C18.3293 135.844 18.6478 135.796 18.6812 135.693C18.7146 135.591 19.5256 135.892 20.4972 136.34C21.4577 136.823 22.2918 137.17 22.3372 137.146C22.3825 137.123 22.1415 136.875 21.8546 136.592C21.4991 136.287 21.199 135.754 21.1159 135.31L20.9621 134.56L21.7988 135.248C22.4634 135.767 22.6822 136.085 22.7666 136.699C22.863 137.393 23.0694 137.574 24.9453 138.619C27.679 140.113 27.8387 140.146 27.1484 139.24C26.596 138.492 26.3235 137.116 26.6866 136.931C26.7774 136.885 27.1675 137.258 27.5131 137.768C28.0081 138.459 28.1593 138.868 28.0955 139.472C27.9988 140.236 28.0446 140.27 30.1732 141.586C31.3748 142.317 32.4041 142.879 32.4495 142.856C32.4949 142.833 32.2174 142.288 31.7913 141.676C31.2381 140.815 31.0522 140.338 31.0693 139.586C31.0696 138.128 31.3877 138.023 32.2283 139.224C32.9195 140.244 33.2373 141.597 32.8288 141.805C32.7154 141.863 32.6379 142.16 32.6173 142.456C32.6092 142.889 33.0225 143.307 34.6484 144.423C35.7591 145.2 36.732 145.819 36.8001 145.784C36.8682 145.75 36.6138 145.25 36.2224 144.707C35.8421 144.129 35.4374 143.334 35.3089 142.914C35.0635 142.096 35.3344 140.271 35.677 140.383C35.8025 140.404 36.2859 141.073 36.7587 141.832C37.6233 143.193 37.6464 143.238 37.3151 144.607C37.0292 145.954 37.0412 146.033 37.683 146.564C39.8151 148.336 40.6741 148.956 40.8102 148.886C40.9237 148.828 40.6796 148.181 40.298 147.432C39.5002 145.866 39.3314 144.638 39.7668 143.472L40.0909 142.65L40.7473 143.602C41.8295 145.108 42.0432 146.257 41.5655 147.844L41.1434 149.26L43.3457 151.282C44.5729 152.4 46.4438 154.277 47.5237 155.499C48.6148 156.686 49.5565 157.693 49.6366 157.738C49.8078 157.794 49.696 156.564 49.4124 155.222C49 153.403 49.2285 152 50.152 150.615L51.0079 149.321L51.2999 150.287C51.8841 152.219 52.163 154.45 51.9066 155.181C51.7388 155.581 51.3 156.29 50.9163 156.771C49.7646 158.101 49.7757 158.067 51.1456 159.97C51.8364 160.933 52.769 162.259 53.2187 162.973C53.6795 163.653 54.07 164.083 54.1372 163.934C54.1702 163.775 54.0943 162.784 53.9722 161.703C53.6787 159.051 53.9522 157.568 55.0345 156.102C55.5308 155.449 56.0501 154.842 56.209 154.761C56.7763 154.472 57.3873 159.934 56.9412 161.191C56.8076 161.602 56.1423 162.484 55.4757 163.195L54.2666 164.469L55.6335 167.488C56.3753 169.168 57.1765 171.19 57.4104 171.985C57.6558 172.803 57.9115 173.473 57.98 173.496C58.1855 173.562 58.4782 171.612 58.479 170.211C58.4639 168.218 59.3547 165.535 60.4735 164.365C61.558 163.183 62.9165 162.091 63.0322 162.318C63.0784 162.408 63.1106 163.65 63.076 165.097C63.028 169.266 62.1221 171.471 59.8982 172.604C59.5578 172.778 58.9918 173.237 58.6758 173.627C58.1565 174.235 58.1244 174.508 58.4066 175.679C58.7355 176.998 59.0256 179.194 59.1786 181.346L59.2322 182.405L59.6942 181.741C59.9421 181.386 60.6378 180.002 61.22 178.676C61.768 177.34 62.6666 175.681 63.1966 174.982C64.0311 173.871 64.3595 173.618 66.4815 172.565C67.7523 171.918 68.9674 171.442 69.173 171.509C69.6183 171.653 67.8335 176.622 66.6296 178.578C65.5606 180.295 64.575 180.997 62.5167 181.446C61.6411 181.635 60.539 181.996 60.0851 182.227C59.3136 182.621 59.2464 182.769 59.2216 184.011C59.2003 185.708 58.7314 189.949 58.2832 192.435C58.0859 193.451 57.9901 194.328 58.0586 194.351C58.2641 194.418 59.3875 192.359 60.013 190.725C60.8401 188.646 61.7952 186.93 62.9007 185.509C63.6452 184.558 64.1774 184.144 65.7659 183.335C68.0352 182.179 69.932 181.469 70.0707 181.742C70.117 181.832 69.5262 183.534 68.7895 185.51C66.5436 191.256 65.019 192.977 61.5611 193.595C59.8436 193.927 57.937 194.841 57.7709 195.469C57.5594 196.12 56.6034 203.725 56.3198 206.87C56.1602 208.352 56.013 209.971 55.9826 210.472C55.8868 211.35 55.8983 211.373 56.1334 210.824C56.2905 210.516 56.6668 209.066 56.9972 207.583C58.0776 202.859 59.2528 200.117 60.9705 198.327C62.0101 197.225 67.178 193.792 67.589 193.925C67.9658 194.048 66.6077 201.2 65.639 204.123C65.1381 205.665 64.3654 207.402 63.8803 208.02C63.0797 209.086 62.8078 209.282 59.4719 210.981C57.4069 212.033 55.8646 212.934 55.7979 213.139C55.4537 214.315 55.2853 231.151 55.6506 231.251C55.8904 231.329 56.7259 227.359 57.0028 224.816C57.7503 218.261 59.4088 214.672 63.0657 211.751C65.1038 210.141 67.5862 208.562 67.5319 208.904C67.5216 209.052 67.3757 210.841 67.2205 212.893C66.8145 217.931 66.4888 220.04 65.6758 222.484C64.6968 225.555 63.9852 226.347 60.515 228.344C57.5889 230.006 56.2526 231.03 55.8378 231.899C55.5685 232.436 56.1218 239.3 56.8094 244.352C57.3646 248.471 58.2213 253.294 58.3926 253.35C58.7351 253.461 59.169 249.095 59.1456 246.02C59.076 236.852 60.4605 233.173 65.7765 228.235C68.4233 225.8 68.6836 225.582 68.7992 225.809C68.8455 225.9 68.9865 227.972 69.1074 230.397C69.4753 236.841 69.154 241.035 68.1626 243.97C67.4716 245.98 66.2972 247.321 63.3631 249.417C60.4062 251.524 58.4971 253.611 58.5956 254.59C58.8043 256.57 61.1004 264.948 62.6966 269.651C63.8499 273.037 65.9647 278.533 66.1359 278.589C66.5243 278.734 65.9904 272.918 65.377 270.143C63.5849 262.138 63.8654 257.079 66.3032 252.606C67.2922 250.845 71.2708 245.302 71.5333 245.368C71.6134 245.413 72.1989 247.516 72.8675 250.062C75.5915 260.794 75.7336 266.01 73.4037 269.684C72.9195 270.416 71.5986 271.975 70.4456 273.135C69.0554 274.557 68.0287 275.852 67.3322 277.122L66.3098 278.986L67.1338 280.996C70.0455 287.945 75.6203 297.596 81.1799 305.253C82.6646 307.27 82.7678 307.36 82.4761 306.451C81.9849 304.758 80.1246 301.275 77.7501 297.568C75.8483 294.621 75.2706 293.543 74.307 291.147C72.2398 285.912 71.9489 283.602 72.7779 278.778C73.1708 276.52 74.8788 270.447 75.1511 270.308C75.3554 270.204 80.6525 277.795 82.7397 281.162C85.3113 285.312 87.1931 290.127 87.2001 292.553C87.2144 294.432 86.5607 296.852 85.3068 299.721C83.9629 302.749 83.4967 304.359 83.3094 306.684L83.1939 307.972L84.9076 310.157C88.8181 315.139 93.9751 320.772 98.9432 325.53L101.066 327.564L99.8737 325.056C98.9825 323.195 98.1637 321.868 96.5416 319.751C93.4121 315.628 93.1239 315.175 91.366 311.669C88.695 306.427 88.2084 303.845 88.84 298.521C89.2354 295.089 90.4138 289.772 90.7221 289.872C90.8934 289.928 96.4697 296.777 98.3449 299.223C100.209 301.646 103.812 308.214 104.327 310.067C105.077 312.829 104.898 314.778 103.574 318.797C102.16 323.148 101.807 324.643 101.777 326.716L101.743 328.22L104.254 330.456C108.463 334.171 112.771 337.578 118.315 341.614C122.496 344.658 123.583 345.333 123.374 344.811C122.967 343.732 120.102 339.903 118.575 338.423C114.755 334.739 111.016 329.926 109.167 326.352C107.132 322.358 106.649 317.259 107.569 309.416C107.739 307.899 107.961 307.1 108.133 307.27C108.294 307.417 109.189 308.276 110.175 309.202C118.219 316.909 121.183 320.258 123.55 324.455C124.716 326.519 125.295 327.767 125.472 328.62C125.921 330.736 125.737 333.516 124.933 337.156C124.195 340.419 123.991 343.61 124.403 345.315C124.568 346.089 124.98 346.393 130.92 350.084C136.825 353.764 147.497 359.674 147.609 359.331C147.687 359.092 145.169 356.058 143.838 354.793C143.127 354.126 141.314 352.42 139.789 350.996C135.223 346.691 131.494 341.617 130.397 338.231C129.348 335.049 128.868 328.834 129.26 323.489L129.372 321.745L129.957 322.276C130.267 322.547 132.17 324.15 134.164 325.821C141.42 331.871 145.324 335.942 147.712 339.956C149.697 343.289 150.081 345.952 149.288 351.015C148.604 355.394 148.575 356.066 148.841 358.16L149.074 360.243L152.538 361.937C158.391 364.785 166.402 368.278 172.925 370.814L173.748 371.138L173.149 370.3C171.848 368.476 169.163 365.843 166.264 363.518C161.118 359.366 157.914 355.939 155.492 351.97C154.073 349.635 153.478 347.737 152.888 343.607C152.454 340.455 152.175 333.68 152.482 333.552C152.686 333.448 160.132 339.087 163.296 341.705C166.012 343.952 169.49 347.411 170.836 349.211C171.446 350.015 172.369 351.603 172.926 352.863C174.166 355.633 174.338 357.374 173.807 362.39C173.521 365.308 173.521 366.709 173.855 368.711L174.284 371.294L175.713 371.909C177.964 372.906 198.186 379.439 204.179 381.102C214.463 383.951 215.433 384.171 217.837 384.233C221.129 384.299 222.327 384.632 222.836 385.63C223.703 387.332 222.864 392.248 221.494 393.431C220.782 394.052 219.31 393.801 215.678 392.45C213.885 391.792 211.327 391.037 210.004 390.796C202.944 389.506 184.434 383.473 172.506 378.574L169.638 377.377L168.811 377.999C166.647 379.53 164.952 381.308 162.799 384.263C159.879 388.238 158.657 389.375 155.706 390.707C152.936 391.947 150.013 392.436 144.74 392.522C141.277 392.571 138.839 392.441 131.009 391.829L127.795 391.58L128.642 390.548C130.041 388.806 134.28 384.617 136.103 383.145C138.56 381.178 141.601 379.686 144.444 379.038C148.571 378.107 153.456 377.819 159.153 378.174C161.455 378.316 166.555 377.947 168.5 377.5C169.421 377.288 169.97 377.58 162.232 374.119C158.963 372.64 154.825 370.69 153.019 369.781C150.96 368.714 149.566 368.167 149.317 368.294C147.853 369.011 145.558 371.295 143.279 374.229C139.569 379.064 137.723 380.433 133.857 381.317C128.888 382.448 124.229 382.392 111.553 381.076C109.774 380.896 108.292 380.679 108.235 380.623C108.13 380.418 110.311 378.078 112.686 375.839C118.499 370.419 122.256 368.648 129.313 368.024C132.455 367.739 134.004 367.75 138.278 368.059C140.238 368.203 142.38 368.313 143.064 368.307C144.18 368.31 148.448 367.879 148.72 367.74C148.788 367.706 148.056 367.278 147.096 366.796C146.124 366.291 142.83 364.482 139.798 362.739L134.25 359.592L131.596 361.116C129.645 362.224 128.501 363.064 127.325 364.178C126.42 365.039 124.915 366.292 123.975 366.972C120.168 369.654 115.514 370.282 106.873 369.254C103.897 368.912 92.9474 366.945 93.0031 366.774C93.1032 366.465 96.8762 363.828 99.4614 362.283C103.543 359.803 106.292 358.745 109.672 358.367C114.087 357.832 118.314 358.05 124.849 359.094C126.217 359.312 128.862 359.508 130.752 359.516C133.634 359.506 134.089 359.445 133.563 359.142C131.79 358.13 125.265 353.851 121.978 351.553L118.234 348.916L115.682 350.359C113.663 351.502 112.712 352.215 111.117 353.742C109.534 355.292 108.571 355.983 106.553 357.126C104.228 358.453 103.819 358.605 101.873 358.881C97.4929 359.541 91.9081 359.071 82.2464 357.219C78.7901 356.551 76.987 356.097 77.1107 355.891C77.2233 355.72 78.3442 354.834 79.6129 353.902C82.5466 351.75 89.2063 348.271 91.1284 347.892C95.3365 347.062 101.294 347.142 106.849 348.114C110.658 348.746 112.869 348.934 115.796 348.843L117.959 348.77L114.477 346.142C112.563 344.688 109.928 342.6 108.621 341.494L106.237 339.507L104.986 339.802C103.371 340.167 101.941 340.839 97.6317 343.32C94.3541 345.19 93.9341 345.376 92.2621 345.685C87.8827 346.458 81.6414 345.036 69.8297 340.536L66.8824 339.408L69.4467 338.101C73.6222 335.973 78.121 334.424 80.9324 334.164C82.4349 334.027 86.0475 334.273 88.4085 334.699C89.4349 334.862 92.7336 335.783 95.725 336.717C101.057 338.374 106.157 339.463 105.354 338.785C103.038 336.764 98.3118 332.369 95.9133 330.018L92.9295 327.079L91.4279 327.33C90.3815 327.52 88.6213 328.217 85.5337 329.618C80.6077 331.9 79.1069 332.264 76.0749 331.98C74.1143 331.778 68.5431 330.1 65.3663 328.746C61.9266 327.269 54.2096 323.512 54.2653 323.341C54.3547 323.123 58.9207 321.426 61.2504 320.725C63.6144 320.035 67.0496 319.428 68.6331 319.45C72.0615 319.447 77.4828 320.886 82.8657 323.26C86.397 324.805 92.107 326.755 92.2298 326.435C92.2405 326.344 91.5854 325.563 90.7242 324.658C88.8752 322.656 86.2896 319.658 83.6102 316.306C82.472 314.914 81.404 313.772 81.2216 313.75C80.1045 313.633 76.5344 314.481 74.036 315.468C70.6179 316.838 69.4242 317.132 67.067 317.218C64.7669 317.304 59.9942 315.791 55.7521 313.636C52.7675 312.098 43.9115 306.835 43.9898 306.652C44.0682 306.469 49.3655 305.085 51.2649 304.717C53.9492 304.207 57.1027 304.001 58.6647 304.206C62.4388 304.712 67.8537 306.813 73.1732 309.848C76.2049 311.59 81.2088 313.557 80.8619 312.876C80.7463 312.649 80.2971 311.992 79.8256 311.403C78.6407 309.863 74.6663 303.97 73.2823 301.703C72.6134 300.614 71.9226 299.651 71.7055 299.562C71.5227 299.484 71.4306 299.359 71.5441 299.301C71.6576 299.243 70.8246 297.552 69.6812 295.477C66.4592 289.658 63.8533 283.983 61.4695 277.565C59.5749 272.556 59.84 272.964 58.2175 272.305C57.395 271.981 55.615 271.573 54.2581 271.378C49.6058 270.719 47.7646 269.742 45.0064 266.516C43.0987 264.287 41.4967 261.816 38.8296 257.086L36.6589 253.219L37.9023 253.471C39.9786 253.9 45.0039 255.684 46.5137 256.516C49.0645 257.931 52.0278 261.166 54.6914 265.44C56.9516 269.091 59.3796 272.341 59.3059 271.636C59.2811 271.363 58.789 269.555 58.2163 267.646C57.6664 265.725 56.8933 262.918 56.5288 261.417C55.8701 258.666 55.8585 258.643 55.0338 258.034C54.5645 257.73 52.656 256.902 50.7942 256.221C45.8486 254.425 44.4381 253.171 41.929 248.247C40.6109 245.66 37.288 237.063 37.4095 236.572C37.487 236.275 40.5037 237.539 42.7457 238.798C47.4927 241.439 49.3684 243.942 53.8166 253.738C55.7861 258.108 55.7082 258.348 54.5855 251.488C54.2749 249.588 53.9013 246.892 53.7312 245.492L53.4382 242.897L52.1206 241.882C51.3986 241.307 49.8541 240.407 48.6885 239.915C44.4143 238.034 42.7943 236.201 40.99 231.089C40.0119 228.271 37.8883 220.121 38.138 219.993C38.3649 219.878 43.493 223.21 44.7657 224.306C47.4373 226.632 49.2397 230.001 50.982 235.945C51.8245 238.889 53.1153 242.376 53.2968 242.283C53.3422 242.26 53.3139 241.531 53.2389 240.655C53.1528 239.812 52.9817 236.784 52.8689 233.926L52.6476 228.779L51.6143 227.705C51.0632 227.128 49.6086 226.069 48.3843 225.349C47.1828 224.618 45.8087 223.66 45.327 223.219C44.2483 222.168 42.9186 219.559 42.2393 217.103C41.6894 215.183 40.3147 206.65 40.459 206.148C40.5703 205.805 45.0275 209.28 46.4398 210.761C47.2898 211.7 47.7625 212.46 48.7706 214.719C49.9757 217.42 50.2331 218.318 51.1939 223.346C51.4197 224.574 51.8304 226.166 52.0865 226.893L52.5863 228.21L52.6375 225.954C52.6849 224.701 52.82 221.488 52.9705 218.81C53.2921 213.158 53.3739 213.431 49.8793 210.724C47.9772 209.235 47.8394 209.076 46.8677 207.113C46.0926 205.536 45.7893 204.604 45.6188 203.147C45.3056 200.906 45.0225 193.618 45.2267 193.514C45.4764 193.387 48.2075 196.054 49.5414 197.719C50.6569 199.122 50.9229 199.644 51.4244 201.19C52.0548 203.212 52.6031 206.42 52.5938 208.197C52.6149 209.473 53.0742 212.955 53.233 212.874C53.2784 212.851 53.483 211.289 53.6738 209.419C53.8762 207.572 54.3294 204.254 54.6431 202.065C54.9911 199.887 55.2046 198.006 55.1352 197.87C54.9271 197.461 53.714 196.707 51.782 195.777C49.4838 194.632 48.6342 193.75 47.6253 191.377C46.8022 189.481 45.1036 183.287 45.3532 183.159C45.5347 183.067 48.7972 185.206 49.8634 186.121C51.262 187.295 52.4752 189.564 53.503 192.927C54.0165 194.552 54.6221 196.302 54.8534 196.756L55.2812 197.595L55.8398 194.652C56.1462 193.01 56.5738 190.82 56.7823 189.77C56.9907 188.721 57.23 187.227 57.2924 186.452L57.4182 185.016L56.1507 184.604C55.4314 184.37 54.1074 184.016 53.2061 183.817C51.9511 183.542 51.2651 183.206 50.4391 182.426C49.3608 181.432 46.988 177.953 45.7508 175.525L45.1264 174.299L47.3642 174.989C51.0864 176.179 52.3707 177.297 55.2068 181.797C56.0599 183.135 56.912 184.359 57.118 184.482C58.1482 185.158 57.1974 175.438 55.9319 172.281C55.7576 171.827 55.6056 171.304 55.6154 171.099C55.6672 170.415 52.6356 164.185 51.1376 161.918C49.1789 158.972 47.1663 156.424 46.7445 156.382C46.5621 156.36 45.8698 156.684 45.1898 157.145C44.1357 157.825 43.806 157.907 42.6893 157.848C41.9828 157.807 40.5565 157.477 39.5173 157.12L37.6101 156.462L39.1661 155.87C41.199 155.091 42.0074 155.051 44.3128 155.648C46.0132 156.068 46.7312 156.131 46.5809 155.836C46.5578 155.791 45.6851 154.863 44.6518 153.789C42.3437 151.335 38.7545 148.162 38.2758 148.12C38.0707 148.11 37.4117 148.331 36.8217 148.632C35.7778 149.164 35.5727 149.154 33.6317 148.542L31.531 147.897L32.3934 147.458C33.4599 146.915 34.5762 146.918 36.4709 147.439C37.2699 147.66 37.8972 147.769 37.8394 147.656C37.7816 147.542 36.8532 146.786 35.7763 145.963L33.8284 144.44L32.4441 145.145C31.1506 145.805 30.9571 145.817 29.2118 145.478C28.2193 145.269 27.3402 145.002 27.2824 144.888C27.1205 144.571 28.6529 143.876 29.6775 143.811C30.167 143.762 31.2045 143.891 31.9576 144.078C32.7335 144.255 33.3951 144.375 33.4404 144.352C33.4858 144.329 32.5352 143.641 31.3333 142.853L29.158 141.389L28.1595 141.898C27.3199 142.325 26.9328 142.351 25.894 142.051L24.6612 141.708L25.4666 141.269C26.0112 140.991 26.6942 140.929 27.6293 141.081L29.0321 141.31L28.1055 140.782C27.6135 140.489 26.5952 139.893 25.8741 139.432C24.5925 138.656 24.5356 138.656 23.6167 139.153C22.9475 139.522 22.4585 139.629 22.0475 139.495C21.4994 139.317 21.4878 139.294 22.214 138.924C22.6224 138.716 23.2022 138.564 23.5096 138.55C23.8059 138.57 24.0333 138.512 23.9986 138.444C23.9639 138.376 22.8545 137.769 21.551 137.118C19.4584 136.041 19.0932 135.941 18.4805 136.253C18.0947 136.45 17.3552 136.569 16.8649 136.505L15.9529 136.398L16.6337 136.051C17.0195 135.854 17.6223 135.747 17.9645 135.801Z" fill="#44745B"/>
<path d="M46.1637 147.388C47.0468 149.682 47.0982 150.456 46.334 151.817C45.9859 152.48 45.6254 153.007 45.5342 152.996C45.3856 152.929 44.5809 150.452 44.4031 149.542C44.2845 148.917 44.8046 146.908 45.2327 146.29C45.5483 145.843 45.5941 145.877 46.1637 147.388Z" fill="#44745B"/>
<path d="M37.4796 151.269C38.4241 151.16 39.6436 151.253 41.5486 151.626L42.3356 151.768L41.1458 152.574C39.7859 153.496 38.6136 153.607 36.1827 152.988L34.6879 152.635L35.322 152.14C36.1372 151.496 36.3076 151.438 37.4796 151.269Z" fill="#44745B"/>
<path d="M43.7197 160.038C44.7323 159.894 46.2263 160.133 48.6575 160.809L50.5865 161.341L48.9527 162.174C48.0676 162.625 46.9544 163.021 46.4534 163.047C45.4404 163.135 42.4846 162.382 41.2839 161.765L40.4947 161.338L41.709 160.748C42.3671 160.413 43.2645 160.098 43.7197 160.038Z" fill="#44745B"/>
<path d="M44.3505 166.605C47.1281 166.391 49.1834 167.059 52.0583 169.167C53.2723 170.035 54.5201 170.857 54.8173 170.991C55.5713 171.293 55.3799 171.59 54.4118 171.598C53.9789 171.59 53.2052 171.698 52.7278 171.827C51.2955 172.214 49.8367 172.1 48.6022 171.528C47.4478 171.001 42.1676 167.146 42.234 166.884C42.2789 166.803 43.2235 166.694 44.3505 166.605Z" fill="#44745B"/>
<path d="M38.7887 271.199C47.1626 271.477 50.8319 273.181 57.6374 279.918C59.3246 281.602 61.5838 283.624 62.6261 284.379C63.6799 285.157 64.4939 285.857 64.4832 285.948C64.4383 286.028 63.6633 285.966 62.7508 285.802C61.8041 285.627 59.7081 285.609 58.0459 285.712C53.5607 286.054 51.8728 285.771 49.2985 284.252C47.548 283.229 44.5912 280.848 42.5367 278.78C41.0101 277.242 35.8766 271.711 35.7379 271.439C35.5876 271.144 36.02 271.095 38.7887 271.199Z" fill="#44745B"/>
<path d="M42.0437 288.864C47.5736 288.104 49.9779 288.223 53.4377 289.347C56.7378 290.438 59.7343 292.055 63.9483 294.996C65.5056 296.089 67.8171 297.484 69.0747 298.101C70.3207 298.695 71.3159 299.246 71.2936 299.314C71.2829 299.406 70.3268 299.493 69.1651 299.513C68.015 299.556 66.1606 299.843 64.9788 300.217C59.0919 301.958 56.2757 301.593 50.7164 298.48C48.6687 297.322 38.3739 290.076 38.131 289.6C38.027 289.395 38.2886 289.348 42.0437 288.864Z" fill="#44745B"/>
</g>
<g clip-path="url(#clip3_7_158)">
<path d="M187.736 379.356C189.618 377.716 190.612 376.237 190.612 375.077C190.612 374.182 189.952 372.966 188.928 371.971C188.529 371.584 188.485 371.564 188.357 371.72C188.095 372.038 187.355 372.44 187.028 372.44C186.672 372.44 186.643 372.384 186.855 372.104C186.934 372 186.999 371.755 186.999 371.561C186.999 370.915 186.916 370.877 185.202 370.727C182.482 370.49 182.56 370.575 180.523 365.583C179.685 363.527 178.931 361.652 178.848 361.417C178.642 360.83 178.66 360.192 178.914 359.087L179.129 358.148L178.85 357.945C178.028 357.349 177.589 356.961 177.328 356.601C176.997 356.143 176.937 355.782 177.209 355.873C177.303 355.904 177.752 356.061 178.206 356.221C179.103 356.536 180.06 356.679 180.595 356.579C181.301 356.446 183.271 354.98 185.692 352.784C187.311 351.316 188.268 350.603 189.44 349.993C190.62 349.377 191.517 349.102 192.571 349.032C194.636 348.894 196.11 349.511 200.426 352.321C202.895 353.928 203.732 354.438 205.016 355.117C207.504 356.432 210.058 357.326 214.587 358.464C218.182 359.368 218.973 359.596 220.224 360.091C223.43 361.358 225.396 363.347 226.392 366.326C226.621 367.012 227.038 368.815 227.038 369.119C227.038 369.182 226.781 368.89 226.467 368.469C225.891 367.697 224.793 366.581 224.61 366.581C224.453 366.581 224.351 367.414 224.361 368.631C224.374 370.269 224.837 371.866 225.721 373.322C225.908 373.63 226.061 373.964 226.06 374.064C226.059 374.405 225.576 376.389 225.071 378.128L224.568 379.862H223.265H221.962L222.317 379.306C223.289 377.787 224.076 375.642 223.969 374.805C223.787 373.384 222.56 372.226 220.799 371.815C220.262 371.69 220.205 371.692 220.161 371.839C220.109 372.014 218.444 379.755 218.444 379.822C218.444 379.844 217.895 379.862 217.223 379.862C216.552 379.862 216.003 379.846 216.003 379.826C216.003 379.806 216.195 379.355 216.43 378.825C217.324 376.808 217.76 375.018 217.568 374.16C217.145 372.274 215.265 370.811 212.442 370.17L211.536 369.964L204.473 374.913L197.41 379.862H195.896H194.381L195.049 379.423C196.036 378.775 196.511 378.359 196.859 377.838C197.12 377.448 197.164 377.304 197.126 376.955C197.068 376.423 196.692 375.854 196.149 375.481C195.685 375.162 194.564 374.744 194.417 374.835C194.366 374.866 193.42 376.01 192.314 377.377L190.303 379.862H188.729H187.155L187.736 379.356ZM184.289 365.505C184.591 365.174 184.627 364.85 184.41 364.43C184.228 364.078 183.989 363.944 183.544 363.944C182.79 363.944 182.34 364.854 182.804 365.441C183.228 365.98 183.832 366.006 184.289 365.505Z" fill="#FFB85C"/>
</g>
<path d="M146.316 81V79.656L147.596 79.336C148.449 79.08 149.004 78.696 149.26 78.184C149.516 77.672 149.644 76.968 149.644 76.072C149.686 73.64 149.708 71.1867 149.708 68.712C149.708 66.1947 149.708 63.6773 149.708 61.16V58.536C149.708 56.0613 149.708 53.5867 149.708 51.112C149.708 48.6373 149.686 46.1627 149.644 43.688C149.644 42.792 149.494 42.1093 149.196 41.64C148.94 41.128 148.385 40.7227 147.532 40.424L146.316 40.04V38.696H161.74C167.969 38.696 172.492 39.8693 175.308 42.216C178.166 44.52 179.596 47.5707 179.596 51.368C179.596 53.7573 178.998 55.976 177.804 58.024C176.652 60.0293 174.732 61.6293 172.044 62.824C169.356 64.0187 165.729 64.616 161.164 64.616H158.86C158.86 66.408 158.86 68.264 158.86 70.184C158.86 72.0613 158.881 73.9813 158.924 75.944C158.924 77.6933 159.713 78.76 161.292 79.144L163.212 79.656V81H146.316ZM158.86 62.76H161.548C163.681 62.76 165.409 62.44 166.732 61.8C168.097 61.1173 169.1 59.9653 169.74 58.344C170.422 56.7227 170.764 54.4827 170.764 51.624C170.764 48.7653 170.401 46.5467 169.676 44.968C168.993 43.3467 167.948 42.216 166.54 41.576C165.132 40.8933 163.382 40.552 161.292 40.552H158.924C158.881 43.496 158.86 46.4827 158.86 49.512C158.86 52.4987 158.86 55.5067 158.86 58.536V62.76ZM196.135 82.088C193.789 82.088 191.399 81.7893 188.967 81.192C186.578 80.6373 184.573 79.8907 182.951 78.952L183.335 70.056H185.191L187.175 74.472C187.773 75.7093 188.391 76.7333 189.031 77.544C189.671 78.3547 190.525 78.9733 191.591 79.4C192.317 79.6987 192.999 79.912 193.639 80.04C194.322 80.1253 195.069 80.168 195.879 80.168C198.482 80.168 200.53 79.5067 202.023 78.184C203.559 76.8187 204.327 75.0267 204.327 72.808C204.327 70.8027 203.794 69.224 202.727 68.072C201.703 66.92 200.039 65.8107 197.735 64.744L195.111 63.592C191.527 62.0133 188.69 60.1787 186.599 58.088C184.551 55.9973 183.527 53.224 183.527 49.768C183.527 47.208 184.167 45.032 185.447 43.24C186.77 41.4053 188.583 39.9973 190.887 39.016C193.191 38.0347 195.879 37.544 198.951 37.544C201.213 37.544 203.325 37.8427 205.287 38.44C207.293 39.0373 209.042 39.848 210.535 40.872L210.087 48.808H208.231L205.863 44.008C205.181 42.6 204.519 41.5973 203.879 41C203.282 40.36 202.535 39.9547 201.639 39.784C201.127 39.6987 200.679 39.6347 200.295 39.592C199.954 39.5493 199.485 39.528 198.887 39.528C196.797 39.528 194.983 40.1467 193.447 41.384C191.954 42.5787 191.207 44.2427 191.207 46.376C191.207 48.424 191.783 50.088 192.935 51.368C194.087 52.648 195.751 53.7787 197.927 54.76L200.807 55.976C204.946 57.768 207.911 59.688 209.703 61.736C211.495 63.7413 212.391 66.3227 212.391 69.48C212.391 73.2347 210.962 76.2853 208.103 78.632C205.287 80.936 201.298 82.088 196.135 82.088ZM213.042 81V79.656L214.77 79.144C215.666 78.888 216.348 78.504 216.818 77.992C217.33 77.48 217.735 76.776 218.034 75.88L230.962 38.504H236.274L249.138 76.136C249.479 77.0747 249.863 77.8 250.29 78.312C250.716 78.7813 251.399 79.1653 252.338 79.464L253.298 79.72V81H237.042V79.72L238.13 79.4C239.068 79.1013 239.623 78.632 239.794 77.992C240.007 77.352 239.964 76.5627 239.666 75.624L236.978 67.368H222.834L220.082 75.496C219.783 76.4347 219.698 77.2027 219.826 77.8C219.954 78.3973 220.487 78.8667 221.426 79.208L222.834 79.656V81H213.042ZM223.474 65.512H236.402L230.13 46.248L223.474 65.512Z" fill="#373743"/>
<path d="M188.329 263.509V139.559C148.338 142.763 128.342 162.592 128.342 199.048C128.342 209.323 129.889 218.492 132.982 226.556C136.186 234.51 140.605 240.973 146.239 245.944C151.873 250.916 158.17 254.837 165.13 257.71C172.089 260.582 179.822 262.515 188.329 263.509ZM215.671 263.509C226.055 262.515 235.059 260.416 242.682 257.212C250.415 254.009 256.325 250.418 260.413 246.441C264.5 242.354 267.759 237.493 270.19 231.859C272.62 226.225 274.111 221.143 274.664 216.614C275.326 212.084 275.658 207.058 275.658 201.534C275.658 191.039 274.111 181.925 271.018 174.192C268.035 166.459 263.671 160.328 257.927 155.798C252.293 151.158 246.051 147.623 239.202 145.193C232.352 142.652 224.509 140.94 215.671 140.056V263.509ZM188.329 273.286C177.282 272.513 167.229 270.911 158.17 268.481C149.221 266.05 141.765 263.233 135.799 260.03C129.944 256.715 124.752 252.849 120.222 248.43C115.803 244.011 112.379 239.758 109.948 235.67C107.628 231.583 105.75 227.219 104.314 222.579C102.878 217.939 101.939 214.073 101.497 210.979C101.166 207.776 101 204.627 101 201.534C101 195.9 101.884 190.155 103.651 184.3C105.529 178.445 108.678 172.48 113.097 166.404C117.516 160.217 122.929 154.694 129.336 149.833C135.854 144.862 144.195 140.553 154.358 136.907C164.522 133.262 175.845 130.887 188.329 129.782V116.691C188.329 111.388 186.893 107.577 184.021 105.257C181.148 102.937 176.398 101.777 169.769 101.777H160.821C158.943 101.777 158.004 100.838 158.004 98.9598V92.6628L158.667 92C178.331 92.4421 192.582 92.6631 201.42 92.6628L245.167 92L245.83 92.6628V98.9598C245.83 100.838 244.946 101.777 243.179 101.777H234.231C227.492 101.777 222.686 103.048 219.814 105.588C217.052 108.019 215.671 111.72 215.671 116.691V129.45C241.963 131.218 263.064 138.675 278.972 151.821C294.991 164.968 303 180.71 303 199.048C303 207.665 300.956 216.172 296.869 224.568C292.781 232.853 287.092 240.421 279.801 247.27C272.509 254.119 263.285 259.864 252.127 264.504C240.969 269.144 228.817 272.071 215.671 273.286V287.206C215.671 292.509 217.107 296.375 219.979 298.806C222.852 301.126 227.602 302.285 234.231 302.285H243.179C245.057 302.285 245.996 303.225 245.996 305.103V311.4L245.333 312.062C225.669 311.62 211.418 311.4 202.58 311.4L158.833 312.062L158.17 311.4V305.103C158.17 303.225 159.054 302.285 160.821 302.285H169.769C176.398 302.285 181.148 301.015 184.021 298.474C186.893 295.933 188.329 292.177 188.329 287.206V273.286Z" fill="#373743"/>
</g>
<defs>
<clipPath id="clip0_7_158">
<rect width="400" height="400" fill="white"/>
</clipPath>
<clipPath id="clip1_7_158">
<rect width="163" height="326" fill="white" transform="translate(311.001 92) rotate(27)"/>
</clipPath>
<clipPath id="clip2_7_158">
<rect width="163" height="326" fill="white" transform="matrix(-0.891007 0.453991 0.453991 0.891007 95.2341 92)"/>
</clipPath>
<clipPath id="clip3_7_158">
<rect width="50" height="50" fill="white" transform="translate(177 339)"/>
</clipPath>
</defs>
</svg>
