<svg width="400" height="400" viewBox="0 0 400 400" fill="none" xmlns="http://www.w3.org/2000/svg">
<g clip-path="url(#clip0_105_2)">
<g clip-path="url(#clip1_105_2)">
<path d="M385.271 79.8014C384.906 79.8442 384.587 79.7962 384.554 79.6935C384.52 79.5907 383.709 79.8921 382.738 80.3403C381.777 80.8228 380.943 81.1696 380.898 81.1465C380.852 81.1233 381.094 80.8746 381.38 80.592C381.736 80.2872 382.036 79.7541 382.119 79.3105L382.273 78.5599L381.436 79.2484C380.772 79.7673 380.553 80.0845 380.468 80.699C380.372 81.3931 380.166 81.5737 378.29 82.6188C375.556 84.1129 375.396 84.1459 376.087 83.2399C376.639 82.4924 376.911 81.1162 376.548 80.9312C376.458 80.8849 376.067 81.2579 375.722 81.7678C375.227 82.4589 375.076 82.8678 375.139 83.4719C375.236 84.2358 375.19 84.2696 373.062 85.5861C371.86 86.3174 370.831 86.8791 370.785 86.856C370.74 86.8328 371.018 86.2882 371.444 85.6764C371.997 84.8149 372.183 84.3379 372.166 83.586C372.165 82.1281 371.847 82.0231 371.007 83.2241C370.315 84.244 369.998 85.597 370.406 85.8052C370.52 85.863 370.597 86.1597 370.618 86.456C370.626 86.8889 370.213 87.3072 368.587 88.4225C367.476 89.2 366.503 89.8191 366.435 89.7844C366.367 89.7497 366.621 89.2505 367.013 88.7067C367.393 88.1287 367.798 87.3345 367.926 86.914C368.171 86.0957 367.901 84.2712 367.558 84.3825C367.433 84.4044 366.949 85.0727 366.476 85.8323C365.612 87.1926 365.589 87.238 365.92 88.6073C366.206 89.9535 366.194 90.0332 365.552 90.5636C363.42 92.3357 362.561 92.9557 362.425 92.8863C362.311 92.8285 362.555 92.1811 362.937 91.4322C363.735 89.8664 363.904 88.6376 363.468 87.4724L363.144 86.6499L362.488 87.6017C361.406 89.1084 361.192 90.2572 361.67 91.8441L362.092 93.2597L359.889 95.2818C358.662 96.4001 356.791 98.2767 355.711 99.4987C354.62 100.686 353.678 101.693 353.598 101.738C353.427 101.794 353.539 100.564 353.823 99.2223C354.235 97.403 354.006 96.0003 353.083 94.6151L352.227 93.3215L351.935 94.2874C351.351 96.2193 351.072 98.4497 351.328 99.1806C351.496 99.5806 351.935 100.29 352.319 100.771C353.47 102.101 353.459 102.067 352.089 103.97C351.399 104.933 350.466 106.259 350.016 106.973C349.556 107.653 349.165 108.083 349.098 107.934C349.065 107.775 349.141 106.784 349.263 105.703C349.556 103.051 349.283 101.568 348.2 100.102C347.704 99.4493 347.185 98.8416 347.026 98.7607C346.459 98.4716 345.848 103.934 346.294 105.191C346.427 105.602 347.093 106.484 347.759 107.195L348.968 108.469L347.601 111.488C346.86 113.168 346.058 115.19 345.825 115.985C345.579 116.803 345.324 117.473 345.255 117.496C345.049 117.562 344.757 115.613 344.756 114.211C344.771 112.218 343.88 109.535 342.761 108.365C341.677 107.183 340.318 106.091 340.203 106.318C340.157 106.408 340.124 107.65 340.159 109.097C340.207 113.266 341.113 115.471 343.337 116.604C343.677 116.778 344.243 117.237 344.559 117.627C345.079 118.235 345.111 118.508 344.828 119.679C344.499 120.998 344.209 123.194 344.056 125.346L344.003 126.405L343.541 125.741C343.293 125.386 342.597 124.002 342.015 122.676C341.467 121.34 340.568 119.681 340.038 118.982C339.204 117.871 338.875 117.618 336.754 116.565C335.483 115.918 334.268 115.442 334.062 115.509C333.617 115.653 335.401 120.622 336.605 122.578C337.674 124.295 338.66 124.997 340.718 125.446C341.594 125.635 342.696 125.996 343.15 126.227C343.921 126.621 343.989 126.769 344.013 128.011C344.035 129.708 344.504 133.949 344.952 136.435C345.149 137.451 345.245 138.328 345.176 138.351C344.971 138.418 343.847 136.359 343.222 134.725C342.395 132.646 341.44 130.93 340.334 129.509C339.59 128.558 339.058 128.144 337.469 127.335C335.2 126.178 333.303 125.469 333.164 125.742C333.118 125.832 333.709 127.534 334.446 129.51C336.691 135.256 338.216 136.977 341.674 137.595C343.391 137.927 345.298 138.841 345.464 139.469C345.676 140.12 346.632 147.725 346.915 150.87C347.075 152.352 347.222 153.971 347.252 154.472C347.348 155.35 347.337 155.373 347.102 154.824C346.944 154.516 346.568 153.066 346.238 151.583C345.157 146.859 343.982 144.117 342.264 142.327C341.225 141.225 336.057 137.792 335.646 137.925C335.269 138.048 336.627 145.2 337.596 148.123C338.097 149.665 338.87 151.402 339.355 152.02C340.155 153.086 340.427 153.282 343.763 154.981C345.828 156.033 347.37 156.934 347.437 157.139C347.781 158.315 347.95 175.151 347.584 175.251C347.345 175.329 346.509 171.359 346.232 168.816C345.485 162.261 343.826 158.672 340.169 155.751C338.131 154.141 335.649 152.562 335.703 152.904C335.713 153.052 335.859 154.841 336.015 156.893C336.421 161.931 336.746 164.04 337.559 166.484C338.538 169.555 339.25 170.347 342.72 172.344C345.646 174.006 346.982 175.03 347.397 175.899C347.667 176.436 347.113 183.3 346.426 188.352C345.87 192.471 345.014 197.294 344.842 197.35C344.5 197.461 344.066 193.095 344.089 190.02C344.159 180.852 342.774 177.173 337.459 172.235C334.812 169.8 334.551 169.582 334.436 169.809C334.389 169.9 334.248 171.972 334.128 174.397C333.76 180.841 334.081 185.035 335.072 187.97C335.763 189.98 336.938 191.321 339.872 193.417C342.829 195.524 344.738 197.611 344.639 198.59C344.431 200.57 342.135 208.948 340.538 213.651C339.385 217.037 337.27 222.533 337.099 222.589C336.711 222.734 337.245 216.918 337.858 214.143C339.65 206.138 339.37 201.079 336.932 196.606C335.943 194.845 331.964 189.302 331.702 189.368C331.622 189.413 331.036 191.516 330.368 194.062C327.644 204.794 327.501 210.01 329.831 213.684C330.316 214.416 331.636 215.975 332.789 217.135C334.18 218.557 335.206 219.852 335.903 221.122L336.925 222.986L336.101 224.996C333.189 231.945 327.615 241.596 322.055 249.253C320.57 251.27 320.467 251.36 320.759 250.451C321.25 248.758 323.11 245.275 325.485 241.568C327.387 238.621 327.964 237.543 328.928 235.147C330.995 229.912 331.286 227.602 330.457 222.778C330.064 220.52 328.356 214.447 328.084 214.308C327.88 214.204 322.582 221.795 320.495 225.162C317.924 229.312 316.042 234.127 316.035 236.553C316.021 238.432 316.674 240.852 317.928 243.721C319.272 246.749 319.738 248.359 319.926 250.684L320.041 251.972L318.327 254.157C314.417 259.139 309.26 264.772 304.292 269.53L302.169 271.564L303.361 269.056C304.253 267.195 305.071 265.868 306.693 263.751C309.823 259.628 310.111 259.175 311.869 255.669C314.54 250.427 315.027 247.845 314.395 242.521C314 239.089 312.821 233.772 312.513 233.872C312.342 233.928 306.765 240.777 304.89 243.223C303.026 245.646 299.423 252.214 298.908 254.067C298.158 256.829 298.337 258.778 299.661 262.797C301.075 267.148 301.428 268.643 301.458 270.716L301.492 272.22L298.981 274.456C294.772 278.171 290.464 281.578 284.92 285.614C280.739 288.658 279.652 289.333 279.861 288.811C280.268 287.732 283.133 283.903 284.659 282.423C288.48 278.739 292.219 273.926 294.068 270.352C296.103 266.358 296.586 261.259 295.666 253.416C295.496 251.899 295.274 251.1 295.102 251.27C294.941 251.417 294.046 252.276 293.06 253.202C285.016 260.909 282.052 264.258 279.685 268.455C278.519 270.519 277.94 271.767 277.763 272.62C277.314 274.736 277.498 277.516 278.302 281.156C279.04 284.419 279.244 287.61 278.832 289.315C278.667 290.089 278.255 290.393 272.315 294.084C266.41 297.764 255.738 303.674 255.626 303.331C255.548 303.092 258.066 300.058 259.397 298.793C260.108 298.126 261.921 296.42 263.446 294.996C268.012 290.691 271.741 285.617 272.838 282.231C273.887 279.049 274.367 272.834 273.975 267.489L273.863 265.745L273.278 266.276C272.968 266.547 271.065 268.15 269.071 269.821C261.815 275.871 257.911 279.942 255.523 283.956C253.538 287.289 253.154 289.952 253.947 295.015C254.631 299.394 254.66 300.066 254.394 302.16L254.161 304.243L250.697 305.937C244.844 308.785 236.833 312.278 230.31 314.814L229.487 315.138L230.086 314.3C231.387 312.476 234.072 309.843 236.971 307.518C242.117 303.366 245.321 299.939 247.743 295.97C249.162 293.635 249.757 291.737 250.347 287.607C250.781 284.455 251.06 277.68 250.753 277.552C250.549 277.448 243.103 283.087 239.939 285.705C237.222 287.952 233.745 291.411 232.399 293.211C231.789 294.015 230.866 295.603 230.309 296.863C229.069 299.633 228.897 301.374 229.428 306.39C229.714 309.308 229.714 310.709 229.38 312.711L228.951 315.294L227.522 315.909C225.271 316.906 205.049 323.439 199.056 325.102C188.772 327.951 187.802 328.171 185.398 328.233C182.106 328.299 180.908 328.632 180.399 329.63C179.532 331.332 180.371 336.248 181.741 337.431C182.453 338.052 183.925 337.801 187.557 336.45C189.35 335.792 191.908 335.037 193.231 334.796C200.291 333.506 218.8 327.473 230.729 322.574L233.597 321.377L234.424 321.999C236.588 323.53 238.283 325.308 240.436 328.263C243.356 332.238 244.578 333.375 247.529 334.707C250.299 335.947 253.222 336.436 258.495 336.522C261.958 336.571 264.396 336.441 272.226 335.829L275.44 335.58L274.593 334.548C273.194 332.806 268.955 328.617 267.132 327.145C264.675 325.178 261.634 323.686 258.791 323.038C254.664 322.107 249.779 321.819 244.082 322.174C241.78 322.316 236.68 321.947 234.735 321.5C233.814 321.288 233.265 321.58 241.003 318.119C244.272 316.64 248.41 314.69 250.216 313.781C252.275 312.714 253.668 312.167 253.918 312.294C255.382 313.011 257.677 315.295 259.955 318.229C263.666 323.064 265.512 324.433 269.378 325.317C274.347 326.448 279.006 326.392 291.682 325.076C293.461 324.896 294.943 324.679 295 324.623C295.105 324.418 292.924 322.078 290.549 319.839C284.736 314.419 280.979 312.648 273.922 312.024C270.78 311.739 269.231 311.75 264.957 312.059C262.997 312.203 260.855 312.313 260.171 312.307C259.055 312.31 254.787 311.879 254.515 311.74C254.447 311.706 255.179 311.278 256.139 310.796C257.111 310.291 260.405 308.482 263.437 306.739L268.985 303.592L271.639 305.116C273.59 306.224 274.734 307.064 275.91 308.178C276.815 309.039 278.32 310.292 279.26 310.972C283.067 313.654 287.721 314.282 296.362 313.254C299.338 312.912 310.288 310.945 310.232 310.774C310.132 310.465 306.359 307.828 303.774 306.283C299.692 303.803 296.943 302.745 293.563 302.367C289.148 301.832 284.921 302.05 278.386 303.094C277.017 303.312 274.373 303.508 272.483 303.516C269.601 303.506 269.146 303.445 269.672 303.142C271.445 302.13 277.97 297.851 281.257 295.553L285.001 292.916L287.553 294.359C289.572 295.502 290.523 296.215 292.118 297.742C293.701 299.292 294.664 299.983 296.682 301.126C299.007 302.453 299.416 302.605 301.362 302.881C305.742 303.541 311.327 303.071 320.989 301.219C324.445 300.551 326.248 300.097 326.124 299.891C326.012 299.72 324.891 298.834 323.622 297.902C320.688 295.75 314.029 292.271 312.107 291.892C307.898 291.062 301.941 291.142 296.386 292.114C292.577 292.746 290.366 292.934 287.439 292.843L285.276 292.77L288.758 290.142C290.672 288.688 293.307 286.6 294.614 285.494L296.998 283.507L298.249 283.802C299.864 284.167 301.294 284.839 305.603 287.32C308.881 289.19 309.301 289.376 310.973 289.685C315.352 290.458 321.594 289.036 333.405 284.536L336.353 283.408L333.788 282.101C329.613 279.973 325.114 278.424 322.303 278.164C320.8 278.027 317.188 278.273 314.826 278.699C313.8 278.862 310.501 279.783 307.51 280.717C302.178 282.374 297.078 283.463 297.881 282.785C300.197 280.764 304.923 276.369 307.322 274.018L310.305 271.079L311.807 271.33C312.854 271.52 314.614 272.217 317.701 273.618C322.627 275.9 324.128 276.264 327.16 275.98C329.121 275.778 334.692 274.1 337.869 272.746C341.308 271.269 349.025 267.512 348.97 267.341C348.88 267.123 344.314 265.426 341.985 264.725C339.621 264.035 336.185 263.428 334.602 263.45C331.173 263.447 325.752 264.886 320.369 267.26C316.838 268.805 311.128 270.755 311.005 270.435C310.994 270.344 311.65 269.563 312.511 268.658C314.36 266.656 316.945 263.658 319.625 260.306C320.763 258.914 321.831 257.772 322.013 257.75C323.13 257.633 326.701 258.481 329.199 259.468C332.617 260.838 333.811 261.132 336.168 261.218C338.468 261.304 343.241 259.791 347.483 257.636C350.467 256.098 359.324 250.835 359.245 250.652C359.167 250.469 353.869 249.085 351.97 248.717C349.286 248.207 346.132 248.001 344.57 248.206C340.796 248.712 335.381 250.813 330.062 253.848C327.03 255.59 322.026 257.557 322.373 256.876C322.489 256.649 322.938 255.992 323.409 255.403C324.594 253.863 328.569 247.97 329.953 245.703C330.622 244.614 331.312 243.651 331.529 243.562C331.712 243.484 331.804 243.359 331.691 243.301C331.577 243.243 332.41 241.552 333.554 239.477C336.776 233.658 339.382 227.983 341.765 221.565C343.66 216.556 343.395 216.964 345.017 216.305C345.84 215.981 347.62 215.573 348.977 215.378C353.629 214.719 355.47 213.742 358.229 210.516C360.136 208.287 361.738 205.816 364.405 201.086L366.576 197.219L365.333 197.471C363.256 197.9 358.231 199.684 356.721 200.516C354.17 201.931 351.207 205.166 348.544 209.44C346.283 213.091 343.855 216.341 343.929 215.636C343.954 215.363 344.446 213.555 345.019 211.646C345.569 209.725 346.342 206.918 346.706 205.417C347.365 202.666 347.376 202.643 348.201 202.034C348.67 201.73 350.579 200.902 352.441 200.221C357.386 198.425 358.797 197.171 361.306 192.247C362.624 189.66 365.947 181.063 365.825 180.572C365.748 180.275 362.731 181.539 360.489 182.798C355.742 185.439 353.867 187.942 349.418 197.738C347.449 202.108 347.527 202.348 348.65 195.488C348.96 193.588 349.334 190.892 349.504 189.492L349.797 186.897L351.114 185.882C351.836 185.307 353.381 184.407 354.546 183.915C358.821 182.034 360.441 180.201 362.245 175.089C363.223 172.271 365.347 164.121 365.097 163.993C364.87 163.878 359.742 167.21 358.469 168.306C355.798 170.632 353.995 174.001 352.253 179.945C351.411 182.889 350.12 186.376 349.938 186.283C349.893 186.26 349.921 185.531 349.996 184.655C350.082 183.812 350.253 180.784 350.366 177.926L350.587 172.779L351.621 171.705C352.172 171.128 353.626 170.069 354.851 169.349C356.052 168.618 357.426 167.66 357.908 167.219C358.987 166.168 360.316 163.558 360.996 161.103C361.546 159.183 362.92 150.65 362.776 150.148C362.665 149.805 358.207 153.28 356.795 154.761C355.945 155.7 355.472 156.46 354.464 158.719C353.259 161.42 353.002 162.318 352.041 167.346C351.815 168.574 351.405 170.166 351.148 170.893L350.649 172.21L350.597 169.954C350.55 168.701 350.415 165.488 350.264 162.81C349.943 157.158 349.861 157.431 353.356 154.724C355.258 153.235 355.396 153.076 356.367 151.113C357.142 149.536 357.446 148.604 357.616 147.147C357.929 144.906 358.212 137.618 358.008 137.514C357.759 137.387 355.027 140.054 353.694 141.719C352.578 143.123 352.312 143.644 351.811 145.19C351.18 147.212 350.632 150.42 350.641 152.197C350.62 153.473 350.161 156.955 350.002 156.874C349.957 156.851 349.752 155.289 349.561 153.419C349.359 151.572 348.906 148.254 348.592 146.065C348.244 143.887 348.03 142.006 348.1 141.87C348.308 141.461 349.521 140.707 351.453 139.777C353.751 138.632 354.601 137.75 355.61 135.377C356.433 133.481 358.131 127.287 357.882 127.159C357.7 127.067 354.438 129.206 353.372 130.121C351.973 131.295 350.76 133.564 349.732 136.927C349.218 138.552 348.613 140.302 348.382 140.756L347.954 141.595L347.395 138.652C347.089 137.01 346.661 134.82 346.453 133.77C346.244 132.721 346.005 131.227 345.943 130.452L345.817 129.016L347.084 128.604C347.804 128.37 349.128 128.016 350.029 127.817C351.284 127.542 351.97 127.206 352.796 126.426C353.874 125.432 356.247 121.953 357.484 119.525L358.109 118.299L355.871 118.989C352.149 120.179 350.864 121.297 348.028 125.797C347.175 127.135 346.323 128.359 346.117 128.482C345.087 129.158 346.038 119.438 347.303 116.281C347.477 115.827 347.629 115.304 347.62 115.099C347.568 114.415 350.599 108.185 352.097 105.918C354.056 102.972 356.069 100.424 356.49 100.382C356.673 100.36 357.365 100.684 358.045 101.145C359.099 101.825 359.429 101.907 360.546 101.848C361.252 101.807 362.678 101.477 363.718 101.12L365.625 100.462L364.069 99.8696C362.036 99.0911 361.228 99.0508 358.922 99.6483C357.222 100.068 356.504 100.131 356.654 99.8361C356.677 99.7908 357.55 98.8634 358.583 97.7891C360.891 95.335 364.481 92.1615 364.959 92.1196C365.164 92.1098 365.823 92.3312 366.413 92.6318C367.457 93.1637 367.662 93.1539 369.603 92.5421L371.704 91.8974L370.842 91.4581C369.775 90.9146 368.659 90.9175 366.764 91.4385C365.965 91.6602 365.338 91.7694 365.396 91.6559C365.453 91.5425 366.382 90.7864 367.459 89.963L369.407 88.4401L370.791 89.1455C372.084 89.8045 372.278 89.8174 374.023 89.4775C375.016 89.2686 375.895 89.002 375.953 88.8885C376.114 88.5708 374.582 87.8757 373.557 87.811C373.068 87.7617 372.031 87.8905 371.277 88.0785C370.501 88.2548 369.84 88.3751 369.795 88.352C369.749 88.3288 370.7 87.6412 371.902 86.853L374.077 85.3888L375.075 85.8976C375.915 86.3254 376.302 86.3511 377.341 86.0515L378.574 85.7077L377.768 85.2688C377.224 84.9913 376.541 84.9291 375.606 85.0815L374.203 85.31L375.13 84.7817C375.622 84.4893 376.64 83.8934 377.361 83.4318C378.642 82.6556 378.699 82.6561 379.618 83.1528C380.287 83.5224 380.776 83.6286 381.188 83.4951C381.736 83.317 381.747 83.2943 381.021 82.9243C380.613 82.7162 380.033 82.5637 379.725 82.55C379.429 82.5705 379.202 82.5118 379.236 82.4437C379.271 82.3757 380.381 81.769 381.684 81.1183C383.777 80.0407 384.142 79.9409 384.755 80.2531C385.14 80.4497 385.88 80.5692 386.37 80.5046L387.282 80.3976L386.601 80.0507C386.216 79.8542 385.613 79.7471 385.271 79.8014Z" fill="#44745B"/>
<path d="M357.071 91.3877C356.188 93.6818 356.137 94.4559 356.901 95.8172C357.249 96.4805 357.61 97.0072 357.701 96.9965C357.849 96.9292 358.654 94.4523 358.832 93.5424C358.951 92.9168 358.43 90.9082 358.002 90.2899C357.687 89.8432 357.641 89.8771 357.071 91.3877Z" fill="#44745B"/>
<path d="M365.755 95.2693C364.811 95.1597 363.591 95.2529 361.686 95.6257L360.899 95.7678L362.089 96.5742C363.449 97.4957 364.621 97.6071 367.052 96.9877L368.547 96.6346L367.913 96.14C367.098 95.4959 366.927 95.4377 365.755 95.2693Z" fill="#44745B"/>
<path d="M359.515 104.038C358.503 103.894 357.009 104.133 354.577 104.809L352.648 105.341L354.282 106.174C355.167 106.625 356.281 107.021 356.782 107.047C357.795 107.135 360.75 106.382 361.951 105.765L362.74 105.338L361.526 104.748C360.868 104.413 359.97 104.098 359.515 104.038Z" fill="#44745B"/>
<path d="M358.885 110.606C356.107 110.391 354.052 111.059 351.177 113.167C349.963 114.035 348.715 114.857 348.418 114.991C347.664 115.293 347.855 115.59 348.823 115.598C349.256 115.59 350.03 115.698 350.507 115.827C351.939 116.214 353.398 116.1 354.633 115.528C355.787 115.001 361.067 111.146 361.001 110.884C360.956 110.803 360.012 110.694 358.885 110.606Z" fill="#44745B"/>
<path d="M364.446 215.199C356.072 215.477 352.403 217.181 345.598 223.918C343.91 225.602 341.651 227.624 340.609 228.379C339.555 229.157 338.741 229.857 338.752 229.948C338.797 230.028 339.572 229.966 340.484 229.802C341.431 229.627 343.527 229.609 345.189 229.712C349.674 230.054 351.362 229.771 353.937 228.253C355.687 227.229 358.644 224.848 360.698 222.78C362.225 221.242 367.358 215.711 367.497 215.439C367.647 215.144 367.215 215.095 364.446 215.199Z" fill="#44745B"/>
<path d="M361.191 232.864C355.661 232.104 353.257 232.223 349.797 233.347C346.497 234.438 343.501 236.055 339.287 238.996C337.729 240.089 335.418 241.484 334.16 242.101C332.914 242.695 331.919 243.246 331.941 243.314C331.952 243.406 332.908 243.493 334.07 243.513C335.22 243.556 337.074 243.843 338.256 244.217C344.143 245.958 346.959 245.593 352.519 242.48C354.566 241.322 364.861 234.076 365.104 233.6C365.208 233.395 364.946 233.348 361.191 232.864Z" fill="#44745B"/>
</g>
<g clip-path="url(#clip2_105_2)">
<path d="M14.9645 79.8014C15.3293 79.8442 15.6478 79.7962 15.6812 79.6935C15.7146 79.5907 16.5256 79.8921 17.4972 80.3403C18.4577 80.8228 19.2918 81.1696 19.3372 81.1465C19.3825 81.1233 19.1415 80.8746 18.8546 80.592C18.4991 80.2872 18.199 79.7541 18.1159 79.3105L17.9621 78.5599L18.7988 79.2484C19.4634 79.7673 19.6822 80.0845 19.7666 80.699C19.863 81.3931 20.0694 81.5737 21.9453 82.6188C24.679 84.1129 24.8387 84.1459 24.1484 83.2399C23.596 82.4924 23.3235 81.1162 23.6866 80.9312C23.7774 80.8849 24.1675 81.2579 24.5131 81.7678C25.0081 82.4589 25.1593 82.8678 25.0955 83.4719C24.9988 84.2358 25.0446 84.2696 27.1732 85.5861C28.3748 86.3174 29.4041 86.8791 29.4495 86.856C29.4949 86.8328 29.2174 86.2882 28.7913 85.6764C28.2381 84.8149 28.0522 84.3379 28.0693 83.586C28.0696 82.1281 28.3877 82.0231 29.2283 83.2241C29.9195 84.244 30.2373 85.597 29.8288 85.8052C29.7154 85.863 29.6379 86.1597 29.6174 86.456C29.6092 86.8889 30.0225 87.3072 31.6484 88.4225C32.7591 89.2 33.732 89.8191 33.8001 89.7844C33.8682 89.7497 33.6138 89.2505 33.2224 88.7067C32.8421 88.1287 32.4374 87.3345 32.3089 86.914C32.0635 86.0957 32.3344 84.2712 32.677 84.3825C32.8025 84.4044 33.2859 85.0727 33.7587 85.8323C34.6233 87.1926 34.6464 87.238 34.3151 88.6073C34.0292 89.9535 34.0412 90.0332 34.683 90.5636C36.8151 92.3357 37.6741 92.9557 37.8102 92.8863C37.9237 92.8285 37.6796 92.1811 37.298 91.4322C36.5002 89.8664 36.3314 88.6376 36.7668 87.4724L37.0909 86.6499L37.7473 87.6017C38.8295 89.1084 39.0432 90.2572 38.5655 91.8441L38.1434 93.2597L40.3457 95.2818C41.5729 96.4001 43.4438 98.2767 44.5238 99.4987C45.6148 100.686 46.5565 101.693 46.6366 101.738C46.8078 101.794 46.696 100.564 46.4124 99.2223C46 97.403 46.2285 96.0003 47.152 94.6151L48.0079 93.3215L48.2999 94.2874C48.8841 96.2193 49.163 98.4497 48.9066 99.1806C48.7388 99.5806 48.3 100.29 47.9163 100.771C46.7646 102.101 46.7758 102.067 48.1456 103.97C48.8364 104.933 49.769 106.259 50.2187 106.973C50.6795 107.653 51.07 108.083 51.1372 107.934C51.1702 107.775 51.0943 106.784 50.9722 105.703C50.6787 103.051 50.9522 101.568 52.0345 100.102C52.5308 99.4493 53.0501 98.8416 53.209 98.7607C53.7763 98.4716 54.3873 103.934 53.9412 105.191C53.8076 105.602 53.1423 106.484 52.4757 107.195L51.2666 108.469L52.6335 111.488C53.3753 113.168 54.1766 115.19 54.4104 115.985C54.6558 116.803 54.9115 117.473 54.98 117.496C55.1855 117.562 55.4783 115.613 55.479 114.211C55.4639 112.218 56.3547 109.535 57.4735 108.365C58.558 107.183 59.9165 106.091 60.0322 106.318C60.0784 106.408 60.1106 107.65 60.076 109.097C60.028 113.266 59.1221 115.471 56.8982 116.604C56.5578 116.778 55.9918 117.237 55.6758 117.627C55.1565 118.235 55.1244 118.508 55.4066 119.679C55.7356 120.998 56.0256 123.194 56.1786 125.346L56.2322 126.405L56.6942 125.741C56.9421 125.386 57.6378 124.002 58.22 122.676C58.768 121.34 59.6666 119.681 60.1966 118.982C61.0311 117.871 61.3595 117.618 63.4815 116.565C64.7523 115.918 65.9674 115.442 66.173 115.509C66.6183 115.653 64.8335 120.622 63.6296 122.578C62.5606 124.295 61.575 124.997 59.5167 125.446C58.6411 125.635 57.539 125.996 57.0851 126.227C56.3136 126.621 56.2464 126.769 56.2216 128.011C56.2003 129.708 55.7314 133.949 55.2832 136.435C55.0859 137.451 54.9901 138.328 55.0586 138.351C55.2641 138.418 56.3875 136.359 57.013 134.725C57.8401 132.646 58.7952 130.93 59.9007 129.509C60.6452 128.558 61.1774 128.144 62.7659 127.335C65.0352 126.178 66.932 125.469 67.0707 125.742C67.117 125.832 66.5262 127.534 65.7895 129.51C63.5436 135.256 62.019 136.977 58.5611 137.595C56.8436 137.927 54.937 138.841 54.7709 139.469C54.5594 140.12 53.6034 147.725 53.3198 150.87C53.1602 152.352 53.013 153.971 52.9826 154.472C52.8868 155.35 52.8983 155.373 53.1334 154.824C53.2905 154.516 53.6668 153.066 53.9972 151.583C55.0776 146.859 56.2528 144.117 57.9705 142.327C59.0101 141.225 64.178 137.792 64.589 137.925C64.9658 138.048 63.6077 145.2 62.639 148.123C62.1381 149.665 61.3654 151.402 60.8803 152.02C60.0797 153.086 59.8078 153.282 56.4719 154.981C54.4069 156.033 52.8646 156.934 52.7979 157.139C52.4537 158.315 52.2853 175.151 52.6506 175.251C52.8904 175.329 53.7259 171.359 54.0027 168.816C54.7503 162.261 56.4088 158.672 60.0657 155.751C62.1037 154.141 64.5862 152.562 64.5319 152.904C64.5216 153.052 64.3757 154.841 64.2205 156.893C63.8145 161.931 63.4888 164.04 62.6758 166.484C61.6968 169.555 60.9852 170.347 57.515 172.344C54.5889 174.006 53.2526 175.03 52.8378 175.899C52.5685 176.436 53.1218 183.3 53.8094 188.352C54.3646 192.471 55.2213 197.294 55.3926 197.35C55.7351 197.461 56.169 193.095 56.1456 190.02C56.076 180.852 57.4605 177.173 62.7765 172.235C65.4233 169.8 65.6836 169.582 65.7992 169.809C65.8455 169.9 65.9865 171.972 66.1074 174.397C66.4753 180.841 66.154 185.035 65.1626 187.97C64.4716 189.98 63.2972 191.321 60.363 193.417C57.4062 195.524 55.4971 197.611 55.5956 198.59C55.8043 200.57 58.1004 208.948 59.6966 213.651C60.8499 217.037 62.9647 222.533 63.1359 222.589C63.5243 222.734 62.9904 216.918 62.377 214.143C60.5849 206.138 60.8654 201.079 63.3032 196.606C64.2922 194.845 68.2708 189.302 68.5333 189.368C68.6134 189.413 69.1989 191.516 69.8675 194.062C72.5915 204.794 72.7336 210.01 70.4037 213.684C69.9195 214.416 68.5986 215.975 67.4456 217.135C66.0554 218.557 65.0287 219.852 64.3322 221.122L63.3098 222.986L64.1338 224.996C67.0455 231.945 72.6203 241.596 78.1799 249.253C79.6646 251.27 79.7678 251.36 79.4761 250.451C78.9849 248.758 77.1246 245.275 74.75 241.568C72.8483 238.621 72.2706 237.543 71.307 235.147C69.2398 229.912 68.9489 227.602 69.7779 222.778C70.1708 220.52 71.8788 214.447 72.1511 214.308C72.3554 214.204 77.6525 221.795 79.7397 225.162C82.3113 229.312 84.1931 234.127 84.2001 236.553C84.2144 238.432 83.5607 240.852 82.3068 243.721C80.9629 246.749 80.4967 248.359 80.3094 250.684L80.1939 251.972L81.9076 254.157C85.8181 259.139 90.9751 264.772 95.9432 269.53L98.0659 271.564L96.8737 269.056C95.9825 267.195 95.1637 265.868 93.5416 263.751C90.4121 259.628 90.1239 259.175 88.366 255.669C85.695 250.427 85.2084 247.845 85.84 242.521C86.2354 239.089 87.4138 233.772 87.7221 233.872C87.8934 233.928 93.4697 240.777 95.3449 243.223C97.2085 245.646 100.812 252.214 101.327 254.067C102.077 256.829 101.898 258.778 100.574 262.797C99.16 267.148 98.8069 268.643 98.777 270.716L98.7429 272.22L101.254 274.456C105.463 278.171 109.771 281.578 115.315 285.614C119.496 288.658 120.583 289.333 120.374 288.811C119.967 287.732 117.102 283.903 115.575 282.423C111.755 278.739 108.016 273.926 106.167 270.352C104.132 266.358 103.649 261.259 104.569 253.416C104.739 251.899 104.961 251.1 105.133 251.27C105.294 251.417 106.189 252.276 107.175 253.202C115.219 260.909 118.183 264.258 120.55 268.455C121.716 270.519 122.295 271.767 122.472 272.62C122.921 274.736 122.737 277.516 121.933 281.156C121.195 284.419 120.991 287.61 121.403 289.315C121.568 290.089 121.98 290.393 127.92 294.084C133.825 297.764 144.497 303.674 144.609 303.331C144.687 303.092 142.169 300.058 140.838 298.793C140.127 298.126 138.314 296.42 136.789 294.996C132.223 290.691 128.494 285.617 127.397 282.231C126.348 279.049 125.868 272.834 126.26 267.489L126.372 265.745L126.957 266.276C127.267 266.547 129.17 268.15 131.164 269.821C138.42 275.871 142.324 279.942 144.712 283.956C146.697 287.289 147.081 289.952 146.288 295.015C145.604 299.394 145.575 300.066 145.841 302.16L146.074 304.243L149.538 305.937C155.391 308.785 163.402 312.278 169.925 314.814L170.748 315.138L170.149 314.3C168.848 312.476 166.163 309.843 163.264 307.518C158.118 303.366 154.914 299.939 152.492 295.97C151.073 293.635 150.478 291.737 149.888 287.607C149.454 284.455 149.175 277.68 149.482 277.552C149.686 277.448 157.132 283.087 160.296 285.705C163.012 287.952 166.49 291.411 167.836 293.211C168.446 294.015 169.369 295.603 169.926 296.863C171.166 299.633 171.338 301.374 170.807 306.39C170.521 309.308 170.521 310.709 170.855 312.711L171.284 315.294L172.713 315.909C174.964 316.906 195.186 323.439 201.179 325.102C211.463 327.951 212.433 328.171 214.837 328.233C218.129 328.299 219.327 328.632 219.836 329.63C220.703 331.332 219.864 336.248 218.494 337.431C217.782 338.052 216.31 337.801 212.678 336.45C210.885 335.792 208.327 335.037 207.004 334.796C199.944 333.506 181.434 327.473 169.506 322.574L166.638 321.377L165.811 321.999C163.647 323.53 161.952 325.308 159.799 328.263C156.879 332.238 155.657 333.375 152.706 334.707C149.936 335.947 147.013 336.436 141.74 336.522C138.277 336.571 135.839 336.441 128.009 335.829L124.795 335.58L125.642 334.548C127.041 332.806 131.28 328.617 133.103 327.145C135.56 325.178 138.601 323.686 141.444 323.038C145.571 322.107 150.456 321.819 156.153 322.174C158.455 322.316 163.555 321.947 165.5 321.5C166.421 321.288 166.97 321.58 159.232 318.119C155.963 316.64 151.825 314.69 150.019 313.781C147.96 312.714 146.566 312.167 146.317 312.294C144.853 313.011 142.558 315.295 140.28 318.229C136.569 323.064 134.723 324.433 130.857 325.317C125.888 326.448 121.229 326.392 108.553 325.076C106.774 324.896 105.292 324.679 105.235 324.623C105.13 324.418 107.311 322.078 109.686 319.839C115.499 314.419 119.256 312.648 126.313 312.024C129.455 311.739 131.004 311.75 135.278 312.059C137.238 312.203 139.38 312.313 140.064 312.307C141.18 312.31 145.448 311.879 145.72 311.74C145.788 311.706 145.056 311.278 144.096 310.796C143.124 310.291 139.83 308.482 136.798 306.739L131.25 303.592L128.596 305.116C126.645 306.224 125.501 307.064 124.325 308.178C123.42 309.039 121.915 310.292 120.975 310.972C117.168 313.654 112.514 314.282 103.873 313.254C100.897 312.912 89.9474 310.945 90.0031 310.774C90.1032 310.465 93.8762 307.828 96.4614 306.283C100.543 303.803 103.292 302.745 106.672 302.367C111.087 301.832 115.314 302.05 121.849 303.094C123.217 303.312 125.862 303.508 127.752 303.516C130.634 303.506 131.089 303.445 130.563 303.142C128.79 302.13 122.265 297.851 118.978 295.553L115.234 292.916L112.682 294.359C110.663 295.502 109.712 296.215 108.117 297.742C106.534 299.292 105.571 299.983 103.553 301.126C101.228 302.453 100.819 302.605 98.8732 302.881C94.4929 303.541 88.9081 303.071 79.2464 301.219C75.7901 300.551 73.987 300.097 74.1107 299.891C74.2233 299.72 75.3442 298.834 76.6129 297.902C79.5466 295.75 86.2063 292.271 88.1284 291.892C92.3365 291.062 98.2943 291.142 103.849 292.114C107.658 292.746 109.869 292.934 112.796 292.843L114.959 292.77L111.477 290.142C109.563 288.688 106.928 286.6 105.621 285.494L103.237 283.507L101.986 283.802C100.371 284.167 98.9412 284.839 94.6317 287.32C91.3541 289.19 90.9341 289.376 89.2621 289.685C84.8827 290.458 78.6414 289.036 66.8297 284.536L63.8824 283.408L66.4467 282.101C70.6222 279.973 75.121 278.424 77.9324 278.164C79.4349 278.027 83.0475 278.273 85.4085 278.699C86.4349 278.862 89.7336 279.783 92.725 280.717C98.0568 282.374 103.157 283.463 102.354 282.785C100.038 280.764 95.3117 276.369 92.9133 274.018L89.9295 271.079L88.4279 271.33C87.3815 271.52 85.6213 272.217 82.5337 273.618C77.6077 275.9 76.1069 276.264 73.0749 275.98C71.1143 275.778 65.5431 274.1 62.3663 272.746C58.9266 271.269 51.2096 267.512 51.2653 267.341C51.3547 267.123 55.9207 265.426 58.2504 264.725C60.6144 264.035 64.0496 263.428 65.6331 263.45C69.0615 263.447 74.4828 264.886 79.8657 267.26C83.397 268.805 89.107 270.755 89.2298 270.435C89.2405 270.344 88.5854 269.563 87.7242 268.658C85.8752 266.656 83.2896 263.658 80.6102 260.306C79.472 258.914 78.404 257.772 78.2216 257.75C77.1045 257.633 73.5344 258.481 71.036 259.468C67.6179 260.838 66.4242 261.132 64.067 261.218C61.7669 261.304 56.9942 259.791 52.7521 257.636C49.7675 256.098 40.9115 250.835 40.9898 250.652C41.0682 250.469 46.3655 249.085 48.2649 248.717C50.9492 248.207 54.1027 248.001 55.6647 248.206C59.4388 248.712 64.8537 250.813 70.1732 253.848C73.2049 255.59 78.2088 257.557 77.8619 256.876C77.7463 256.649 77.2971 255.992 76.8256 255.403C75.6407 253.863 71.6663 247.97 70.2823 245.703C69.6134 244.614 68.9226 243.651 68.7055 243.562C68.5227 243.484 68.4306 243.359 68.5441 243.301C68.6576 243.243 67.8246 241.552 66.6812 239.477C63.4592 233.658 60.8533 227.983 58.4695 221.565C56.5749 216.556 56.84 216.964 55.2175 216.305C54.395 215.981 52.615 215.573 51.2581 215.378C46.6058 214.719 44.7646 213.742 42.0064 210.516C40.0987 208.287 38.4967 205.816 35.8296 201.086L33.6589 197.219L34.9023 197.471C36.9786 197.9 42.0039 199.684 43.5137 200.516C46.0645 201.931 49.0278 205.166 51.6914 209.44C53.9516 213.091 56.3796 216.341 56.3059 215.636C56.2811 215.363 55.789 213.555 55.2163 211.646C54.6664 209.725 53.8933 206.918 53.5288 205.417C52.8701 202.666 52.8585 202.643 52.0338 202.034C51.5645 201.73 49.656 200.902 47.7943 200.221C42.8486 198.425 41.4381 197.171 38.929 192.247C37.6109 189.66 34.288 181.063 34.4096 180.572C34.487 180.275 37.5037 181.539 39.7457 182.798C44.4927 185.439 46.3684 187.942 50.8166 197.738C52.7861 202.108 52.7082 202.348 51.5855 195.488C51.2749 193.588 50.9013 190.892 50.7312 189.492L50.4382 186.897L49.1206 185.882C48.3986 185.307 46.8541 184.407 45.6885 183.915C41.4143 182.034 39.7943 180.201 37.99 175.089C37.0119 172.271 34.8883 164.121 35.138 163.993C35.3649 163.878 40.4931 167.21 41.7657 168.306C44.4373 170.632 46.2398 174.001 47.982 179.945C48.8245 182.889 50.1153 186.376 50.2968 186.283C50.3422 186.26 50.3139 185.531 50.2389 184.655C50.1528 183.812 49.9817 180.784 49.8689 177.926L49.6476 172.779L48.6143 171.705C48.0632 171.128 46.6086 170.069 45.3843 169.349C44.1828 168.618 42.8087 167.66 42.327 167.219C41.2483 166.168 39.9186 163.558 39.2393 161.103C38.6894 159.183 37.3147 150.65 37.459 150.148C37.5703 149.805 42.0275 153.28 43.4398 154.761C44.2898 155.7 44.7625 156.46 45.7706 158.719C46.9757 161.42 47.2331 162.318 48.1939 167.346C48.4197 168.574 48.8304 170.166 49.0865 170.893L49.5863 172.21L49.6375 169.954C49.685 168.701 49.82 165.488 49.9705 162.81C50.2921 157.158 50.3739 157.431 46.8793 154.724C44.9772 153.235 44.8394 153.076 43.8677 151.113C43.0925 149.536 42.7893 148.604 42.6188 147.147C42.3056 144.906 42.0225 137.618 42.2267 137.514C42.4764 137.387 45.2075 140.054 46.5414 141.719C47.6569 143.123 47.9229 143.644 48.4244 145.19C49.0548 147.212 49.6031 150.42 49.5938 152.197C49.6149 153.473 50.0742 156.955 50.233 156.874C50.2784 156.851 50.483 155.289 50.6738 153.419C50.8762 151.572 51.3294 148.254 51.6431 146.065C51.9911 143.887 52.2046 142.006 52.1352 141.87C51.9271 141.461 50.714 140.707 48.782 139.777C46.4838 138.632 45.6342 137.75 44.6253 135.377C43.8022 133.481 42.1035 127.287 42.3532 127.159C42.5347 127.067 45.7972 129.206 46.8634 130.121C48.262 131.295 49.4752 133.564 50.503 136.927C51.0165 138.552 51.6221 140.302 51.8534 140.756L52.2812 141.595L52.8398 138.652C53.1462 137.01 53.5738 134.82 53.7823 133.77C53.9907 132.721 54.23 131.227 54.2924 130.452L54.4182 129.016L53.1507 128.604C52.4314 128.37 51.1074 128.016 50.2061 127.817C48.9511 127.542 48.2651 127.206 47.4391 126.426C46.3608 125.432 43.988 121.953 42.7508 119.525L42.1264 118.299L44.3642 118.989C48.0864 120.179 49.3706 121.297 52.2068 125.797C53.0599 127.135 53.912 128.359 54.118 128.482C55.1483 129.158 54.1974 119.438 52.9319 116.281C52.7576 115.827 52.6056 115.304 52.6154 115.099C52.6672 114.415 49.6356 108.185 48.1377 105.918C46.1789 102.972 44.1663 100.424 43.7445 100.382C43.5621 100.36 42.8698 100.684 42.1899 101.145C41.1357 101.825 40.806 101.907 39.6893 101.848C38.9828 101.807 37.5565 101.477 36.5173 101.12L34.6101 100.462L36.1661 99.8696C38.199 99.0911 39.0074 99.0508 41.3128 99.6483C43.0132 100.068 43.7312 100.131 43.5809 99.8361C43.5578 99.7908 42.6851 98.8634 41.6518 97.7891C39.3437 95.335 35.7545 92.1615 35.2758 92.1196C35.0707 92.1098 34.4117 92.3312 33.8217 92.6318C32.7778 93.1637 32.5727 93.1539 30.6317 92.5421L28.531 91.8974L29.3933 91.4581C30.4599 90.9146 31.5762 90.9175 33.4709 91.4385C34.2699 91.6602 34.8972 91.7694 34.8394 91.6559C34.7816 91.5425 33.8532 90.7864 32.7763 89.963L30.8284 88.4401L29.4441 89.1455C28.1506 89.8045 27.9571 89.8174 26.2118 89.4775C25.2193 89.2686 24.3402 89.002 24.2824 88.8885C24.1205 88.5708 25.6529 87.8757 26.6775 87.811C27.167 87.7617 28.2045 87.8905 28.9576 88.0785C29.7335 88.2548 30.3951 88.3751 30.4405 88.352C30.4858 88.3288 29.5352 87.6412 28.3333 86.853L26.158 85.3888L25.1595 85.8976C24.3199 86.3254 23.9328 86.3511 22.894 86.0515L21.6612 85.7077L22.4666 85.2688C23.0112 84.9913 23.6942 84.9291 24.6294 85.0815L26.0321 85.31L25.1055 84.7817C24.6135 84.4893 23.5952 83.8934 22.8741 83.4318C21.5925 82.6556 21.5356 82.6561 20.6167 83.1528C19.9475 83.5224 19.4585 83.6286 19.0475 83.4951C18.4994 83.317 18.4878 83.2943 19.214 82.9243C19.6224 82.7162 20.2022 82.5637 20.5096 82.55C20.8059 82.5705 21.0333 82.5118 20.9986 82.4437C20.9639 82.3757 19.8545 81.769 18.551 81.1183C16.4584 80.0407 16.0932 79.9409 15.4805 80.2531C15.0947 80.4497 14.3552 80.5692 13.8649 80.5046L12.9529 80.3976L13.6337 80.0507C14.0195 79.8542 14.6223 79.7471 14.9645 79.8014Z" fill="#44745B"/>
<path d="M43.1636 91.3877C44.0467 93.6818 44.0982 94.4559 43.334 95.8172C42.9859 96.4805 42.6254 97.0072 42.5342 96.9965C42.3856 96.9292 41.5809 94.4523 41.4031 93.5424C41.2845 92.9168 41.8046 90.9082 42.2327 90.2899C42.5482 89.8432 42.5941 89.8771 43.1636 91.3877Z" fill="#44745B"/>
<path d="M34.4795 95.2693C35.4241 95.1597 36.6436 95.2529 38.5486 95.6257L39.3356 95.7678L38.1457 96.5742C36.7859 97.4957 35.6135 97.6071 33.1827 96.9877L31.6879 96.6346L32.322 96.14C33.1372 95.4959 33.3076 95.4377 34.4795 95.2693Z" fill="#44745B"/>
<path d="M40.7197 104.038C41.7323 103.894 43.2263 104.133 45.6575 104.809L47.5865 105.341L45.9527 106.174C45.0676 106.625 43.9544 107.021 43.4534 107.047C42.4404 107.135 39.4846 106.382 38.2839 105.765L37.4947 105.338L38.709 104.748C39.3671 104.413 40.2645 104.098 40.7197 104.038Z" fill="#44745B"/>
<path d="M41.3504 110.606C44.128 110.391 46.1833 111.059 49.0583 113.167C50.2722 114.035 51.52 114.857 51.8172 114.991C52.5712 115.293 52.3799 115.59 51.4118 115.598C50.9789 115.59 50.2051 115.698 49.7277 115.827C48.2955 116.214 46.8367 116.1 45.6022 115.528C44.4478 115.001 39.1676 111.146 39.2339 110.884C39.2789 110.803 40.2234 110.694 41.3504 110.606Z" fill="#44745B"/>
<path d="M35.7887 215.199C44.1626 215.477 47.8319 217.181 54.6374 223.918C56.3246 225.602 58.5838 227.624 59.6261 228.379C60.6799 229.157 61.4939 229.857 61.4832 229.948C61.4383 230.028 60.6633 229.966 59.7508 229.802C58.8041 229.627 56.7081 229.609 55.0459 229.712C50.5607 230.054 48.8728 229.771 46.2985 228.253C44.548 227.229 41.5912 224.848 39.5367 222.78C38.0101 221.242 32.8766 215.711 32.7379 215.439C32.5876 215.144 33.02 215.095 35.7887 215.199Z" fill="#44745B"/>
<path d="M39.0437 232.864C44.5736 232.104 46.9778 232.223 50.4376 233.347C53.7377 234.438 56.7342 236.055 60.9482 238.996C62.5056 240.089 64.817 241.484 66.0746 242.101C67.3207 242.695 68.3158 243.246 68.2936 243.314C68.2829 243.406 67.3267 243.493 66.1651 243.513C65.015 243.556 63.1605 243.843 61.9788 244.217C56.0918 245.958 53.2757 245.593 47.7163 242.48C45.6687 241.322 35.3738 234.076 35.131 233.6C35.0269 233.395 35.2885 233.348 39.0437 232.864Z" fill="#44745B"/>
</g>
<g clip-path="url(#clip3_105_2)">
<path d="M184.736 323.356C186.618 321.716 187.612 320.237 187.612 319.077C187.612 318.182 186.952 316.966 185.928 315.971C185.529 315.584 185.485 315.564 185.357 315.72C185.095 316.038 184.355 316.44 184.028 316.44C183.672 316.44 183.643 316.384 183.855 316.104C183.934 316 183.999 315.755 183.999 315.561C183.999 314.915 183.916 314.877 182.202 314.727C179.482 314.49 179.56 314.575 177.523 309.583C176.685 307.527 175.931 305.652 175.848 305.417C175.642 304.83 175.66 304.192 175.914 303.087L176.129 302.148L175.85 301.945C175.028 301.349 174.589 300.961 174.328 300.601C173.997 300.143 173.937 299.782 174.209 299.873C174.303 299.904 174.752 300.061 175.206 300.221C176.103 300.536 177.06 300.679 177.595 300.579C178.301 300.446 180.271 298.98 182.692 296.784C184.311 295.316 185.268 294.603 186.44 293.993C187.62 293.377 188.517 293.102 189.571 293.032C191.636 292.894 193.11 293.511 197.426 296.321C199.895 297.928 200.732 298.438 202.016 299.117C204.504 300.432 207.058 301.326 211.587 302.464C215.182 303.368 215.973 303.596 217.224 304.091C220.43 305.358 222.396 307.347 223.392 310.326C223.621 311.012 224.038 312.815 224.038 313.119C224.038 313.182 223.781 312.89 223.467 312.469C222.891 311.697 221.793 310.581 221.61 310.581C221.453 310.581 221.352 311.414 221.361 312.631C221.374 314.269 221.837 315.866 222.721 317.322C222.908 317.63 223.061 317.964 223.06 318.064C223.059 318.405 222.576 320.389 222.071 322.128L221.568 323.862H220.265H218.962L219.318 323.306C220.289 321.787 221.076 319.642 220.969 318.805C220.787 317.384 219.56 316.226 217.799 315.815C217.262 315.69 217.205 315.692 217.161 315.839C217.109 316.014 215.444 323.755 215.444 323.822C215.444 323.844 214.895 323.862 214.223 323.862C213.552 323.862 213.003 323.846 213.003 323.826C213.003 323.806 213.195 323.355 213.43 322.825C214.324 320.808 214.76 319.018 214.568 318.16C214.145 316.274 212.265 314.811 209.442 314.17L208.536 313.964L201.473 318.913L194.41 323.862H192.896H191.381L192.049 323.423C193.036 322.775 193.511 322.359 193.859 321.838C194.12 321.448 194.164 321.304 194.126 320.955C194.068 320.423 193.692 319.854 193.149 319.481C192.685 319.162 191.564 318.744 191.417 318.835C191.366 318.866 190.42 320.01 189.314 321.377L187.303 323.862H185.729H184.155L184.736 323.356ZM181.289 309.505C181.591 309.174 181.627 308.85 181.41 308.43C181.228 308.078 180.989 307.944 180.544 307.944C179.79 307.944 179.34 308.854 179.804 309.441C180.228 309.98 180.832 310.006 181.289 309.505Z" fill="#FFB85C"/>
</g>
<path d="M185.329 207.509V83.5587C145.338 86.7626 125.342 106.592 125.342 143.048C125.342 153.323 126.889 162.492 129.982 170.556C133.185 178.51 137.604 184.973 143.239 189.944C148.873 194.916 155.17 198.837 162.129 201.71C169.089 204.582 176.822 206.515 185.329 207.509ZM212.671 207.509C223.055 206.515 232.059 204.416 239.682 201.212C247.415 198.009 253.325 194.418 257.413 190.441C261.5 186.354 264.759 181.493 267.189 175.859C269.62 170.225 271.111 165.143 271.664 160.614C272.326 156.084 272.658 151.058 272.658 145.534C272.658 135.039 271.111 125.925 268.018 118.192C265.035 110.459 260.671 104.328 254.927 99.7982C249.293 95.1585 243.051 91.6234 236.202 89.1928C229.352 86.6521 221.509 84.9397 212.671 84.0558V207.509ZM185.329 217.286C174.281 216.513 164.228 214.911 155.17 212.481C146.221 210.05 138.764 207.233 132.799 204.03C126.944 200.715 121.752 196.849 117.222 192.43C112.803 188.011 109.379 183.758 106.948 179.67C104.628 175.583 102.75 171.219 101.314 166.579C99.8779 161.939 98.9389 158.073 98.497 154.979C98.1656 151.776 97.9999 148.627 97.9999 145.534C97.9999 139.9 98.8836 134.155 100.651 128.3C102.529 122.445 105.678 116.48 110.097 110.404C114.516 104.217 119.929 98.6936 126.336 93.8327C132.854 88.8615 141.195 84.5531 151.358 80.9073C161.522 77.2619 172.845 74.8867 185.329 73.7818V60.6907C185.329 55.3882 183.893 51.5769 181.02 49.2568C178.148 46.937 173.398 45.7771 166.769 45.7769H157.821C155.943 45.7771 155.004 44.8381 155.004 42.9598V36.6628L155.667 36C175.331 36.4421 189.582 36.6631 198.42 36.6628L242.167 36L242.83 36.6628V42.9598C242.83 44.8381 241.946 45.7771 240.179 45.7769H231.23C224.491 45.7771 219.686 47.0475 216.814 49.5882C214.052 52.0188 212.671 55.7196 212.671 60.6907V73.4504C238.963 75.2181 260.064 82.675 275.972 95.8212C291.99 108.968 300 124.71 300 143.048C300 151.665 297.956 160.172 293.869 168.568C289.781 176.853 284.092 184.421 276.801 191.27C269.509 198.119 260.285 203.864 249.127 208.504C237.969 213.144 225.817 216.071 212.671 217.286V231.206C212.671 236.509 214.107 240.375 216.979 242.806C219.852 245.126 224.602 246.285 231.23 246.285H240.179C242.057 246.285 242.996 247.225 242.996 249.103V255.4L242.333 256.062C222.669 255.62 208.418 255.4 199.58 255.4L155.833 256.062L155.17 255.4V249.103C155.17 247.225 156.053 246.285 157.821 246.285H166.769C173.398 246.285 178.148 245.015 181.02 242.474C183.893 239.933 185.329 236.177 185.329 231.206V217.286Z" fill="#373743"/>
</g>
<defs>
<clipPath id="clip0_105_2">
<rect width="400" height="400" fill="white"/>
</clipPath>
<clipPath id="clip1_105_2">
<rect width="163" height="326" fill="white" transform="translate(308.001 36) rotate(27)"/>
</clipPath>
<clipPath id="clip2_105_2">
<rect width="163" height="326" fill="white" transform="matrix(-0.891007 0.453991 0.453991 0.891007 92.234 36)"/>
</clipPath>
<clipPath id="clip3_105_2">
<rect width="50" height="50" fill="white" transform="translate(174 283)"/>
</clipPath>
</defs>
</svg>
